<mxfile host="app.diagrams.net" modified="2023-06-02T09:15:54.970Z" agent="Mozilla/5.0 (Windows NT 10.0; Win64; x64; rv:109.0) Gecko/20100101 Firefox/113.0" etag="6maSbcv3v9T_v7LcAMrI" version="21.3.7" type="device">
  <diagram name="Page-1" id="YM6OLwNWBf0vI4ov8nNi">
    <mxGraphModel dx="438" dy="245" grid="1" gridSize="10" guides="1" tooltips="1" connect="1" arrows="1" fold="1" page="1" pageScale="1" pageWidth="3300" pageHeight="2339" math="0" shadow="0">
      <root>
        <mxCell id="0" />
        <mxCell id="1" parent="0" />
        <mxCell id="mSL13TPong9YCI3O3dyP-111" style="edgeStyle=orthogonalEdgeStyle;rounded=0;orthogonalLoop=1;jettySize=auto;html=1;entryX=0.5;entryY=1;entryDx=0;entryDy=0;" parent="1" edge="1">
          <mxGeometry relative="1" as="geometry">
            <mxPoint x="563.0256410256411" y="913" as="sourcePoint" />
          </mxGeometry>
        </mxCell>
        <mxCell id="mSL13TPong9YCI3O3dyP-112" style="edgeStyle=orthogonalEdgeStyle;rounded=0;orthogonalLoop=1;jettySize=auto;html=1;entryX=0.5;entryY=1;entryDx=0;entryDy=0;" parent="1" edge="1">
          <mxGeometry relative="1" as="geometry">
            <Array as="points">
              <mxPoint x="563" y="893" />
              <mxPoint x="510" y="893" />
            </Array>
            <mxPoint x="563.0256410256411" y="913" as="sourcePoint" />
          </mxGeometry>
        </mxCell>
        <mxCell id="HwPFHqp_LilTzUDiQz0i-3" style="edgeStyle=none;curved=1;rounded=0;orthogonalLoop=1;jettySize=auto;html=1;entryX=0.5;entryY=0;entryDx=0;entryDy=0;fontSize=12;startSize=8;endSize=8;endArrow=none;endFill=0;" parent="1" source="HwPFHqp_LilTzUDiQz0i-10" target="HwPFHqp_LilTzUDiQz0i-74" edge="1">
          <mxGeometry relative="1" as="geometry" />
        </mxCell>
        <mxCell id="HwPFHqp_LilTzUDiQz0i-4" style="edgeStyle=none;curved=1;rounded=0;orthogonalLoop=1;jettySize=auto;html=1;fontSize=12;startSize=8;endSize=8;entryX=0;entryY=0.5;entryDx=0;entryDy=0;endArrow=none;endFill=0;strokeWidth=2;" parent="1" target="HwPFHqp_LilTzUDiQz0i-91" edge="1">
          <mxGeometry relative="1" as="geometry">
            <mxPoint x="2970" y="1570" as="targetPoint" />
            <mxPoint x="2780" y="1465" as="sourcePoint" />
          </mxGeometry>
        </mxCell>
        <mxCell id="HwPFHqp_LilTzUDiQz0i-7" style="edgeStyle=orthogonalEdgeStyle;rounded=0;orthogonalLoop=1;jettySize=auto;html=1;exitX=0;exitY=0.75;exitDx=0;exitDy=0;fontSize=12;startSize=8;endSize=8;entryX=0.5;entryY=0;entryDx=0;entryDy=0;endArrow=none;endFill=0;strokeWidth=2;" parent="1" target="HwPFHqp_LilTzUDiQz0i-164" edge="1">
          <mxGeometry relative="1" as="geometry">
            <mxPoint x="2000" y="1754" as="targetPoint" />
            <mxPoint x="2555" y="1477.5" as="sourcePoint" />
            <Array as="points">
              <mxPoint x="2555" y="1475" />
              <mxPoint x="2000" y="1475" />
            </Array>
          </mxGeometry>
        </mxCell>
        <mxCell id="HwPFHqp_LilTzUDiQz0i-9" style="edgeStyle=none;curved=1;rounded=0;orthogonalLoop=1;jettySize=auto;html=1;fontSize=12;startSize=8;endSize=8;endArrow=none;endFill=0;strokeWidth=2;" parent="1" edge="1">
          <mxGeometry relative="1" as="geometry">
            <mxPoint x="2732.5" y="1668" as="targetPoint" />
            <mxPoint x="2732.5" y="1505" as="sourcePoint" />
          </mxGeometry>
        </mxCell>
        <mxCell id="FHESCMoN95WrOvaPs308-28" style="edgeStyle=orthogonalEdgeStyle;rounded=0;orthogonalLoop=1;jettySize=auto;html=1;exitX=0;exitY=0.5;exitDx=0;exitDy=0;endArrow=none;endFill=0;strokeWidth=2;" parent="1" source="HwPFHqp_LilTzUDiQz0i-10" target="HwPFHqp_LilTzUDiQz0i-217" edge="1">
          <mxGeometry relative="1" as="geometry">
            <mxPoint x="2080" y="1460" as="targetPoint" />
            <Array as="points">
              <mxPoint x="2318" y="1460" />
              <mxPoint x="2318" y="1400" />
            </Array>
          </mxGeometry>
        </mxCell>
        <mxCell id="FHESCMoN95WrOvaPs308-31" style="edgeStyle=orthogonalEdgeStyle;rounded=0;orthogonalLoop=1;jettySize=auto;html=1;exitX=0;exitY=0;exitDx=0;exitDy=0;entryX=1;entryY=0.5;entryDx=0;entryDy=0;endArrow=none;endFill=0;strokeWidth=2;" parent="1" source="HwPFHqp_LilTzUDiQz0i-10" target="HwPFHqp_LilTzUDiQz0i-150" edge="1">
          <mxGeometry relative="1" as="geometry">
            <Array as="points">
              <mxPoint x="2470" y="1415" />
              <mxPoint x="2470" y="1213" />
            </Array>
          </mxGeometry>
        </mxCell>
        <mxCell id="FHESCMoN95WrOvaPs308-54" style="edgeStyle=orthogonalEdgeStyle;rounded=0;orthogonalLoop=1;jettySize=auto;html=1;exitX=1;exitY=0.25;exitDx=0;exitDy=0;entryX=0;entryY=0.5;entryDx=0;entryDy=0;endArrow=none;endFill=0;strokeWidth=2;" parent="1" source="HwPFHqp_LilTzUDiQz0i-10" target="HwPFHqp_LilTzUDiQz0i-141" edge="1">
          <mxGeometry relative="1" as="geometry">
            <Array as="points">
              <mxPoint x="2920" y="1437" />
              <mxPoint x="2920" y="1330" />
            </Array>
          </mxGeometry>
        </mxCell>
        <mxCell id="HwPFHqp_LilTzUDiQz0i-10" value="Research Activity" style="html=1;overflow=block;blockSpacing=1;whiteSpace=wrap;fontSize=16.7;fontColor=#3a414a;spacing=9;strokeColor=#3a414a;strokeOpacity=100;rounded=1;absoluteArcSize=1;arcSize=9;strokeWidth=0.8;lucidId=~a4Z-sHyfu7j;" parent="1" vertex="1">
          <mxGeometry x="2555" y="1415" width="225" height="90" as="geometry" />
        </mxCell>
        <mxCell id="HwPFHqp_LilTzUDiQz0i-11" style="edgeStyle=orthogonalEdgeStyle;rounded=0;orthogonalLoop=1;jettySize=auto;html=1;endArrow=none;endFill=0;entryX=0.113;entryY=0;entryDx=0;entryDy=0;entryPerimeter=0;" parent="1" source="HwPFHqp_LilTzUDiQz0i-12" target="HwPFHqp_LilTzUDiQz0i-10" edge="1">
          <mxGeometry relative="1" as="geometry">
            <mxPoint x="2580" y="1410" as="targetPoint" />
          </mxGeometry>
        </mxCell>
        <mxCell id="HwPFHqp_LilTzUDiQz0i-12" value="&lt;u&gt;id&lt;/u&gt;" style="html=1;overflow=block;blockSpacing=1;whiteSpace=wrap;rounded=1;arcSize=50;fontSize=16.7;fontColor=#3a414a;spacing=3.8;strokeColor=#3a414a;strokeOpacity=100;strokeWidth=0.8;lucidId=Pb4ZrOpoAyKQ;" parent="1" vertex="1">
          <mxGeometry x="2520" y="1322.5" width="120" height="60" as="geometry" />
        </mxCell>
        <mxCell id="HwPFHqp_LilTzUDiQz0i-13" value="&lt;div class=&quot;lRu31&quot;&gt;nationality&lt;br&gt;&lt;span class=&quot;HwtZe&quot; lang=&quot;en&quot;&gt;&lt;/span&gt;&lt;span class=&quot;ZSCsVd&quot;&gt;&lt;/span&gt;&lt;/div&gt;" style="html=1;overflow=block;blockSpacing=1;whiteSpace=wrap;rounded=1;arcSize=50;fontSize=16.7;fontColor=#3a414a;spacing=3.8;strokeColor=#3a414a;strokeOpacity=100;strokeWidth=0.8;lucidId=ve4Zq9YiYnei;" parent="1" vertex="1">
          <mxGeometry x="2750" y="1325" width="120" height="60" as="geometry" />
        </mxCell>
        <mxCell id="HwPFHqp_LilTzUDiQz0i-14" value="" style="edgeStyle=none;curved=1;rounded=0;orthogonalLoop=1;jettySize=auto;html=1;fontSize=12;startSize=8;endSize=8;endArrow=none;endFill=0;strokeWidth=2;" parent="1" source="HwPFHqp_LilTzUDiQz0i-18" target="HwPFHqp_LilTzUDiQz0i-88" edge="1">
          <mxGeometry relative="1" as="geometry" />
        </mxCell>
        <mxCell id="HwPFHqp_LilTzUDiQz0i-16" value="" style="edgeStyle=none;curved=1;rounded=0;orthogonalLoop=1;jettySize=auto;html=1;fontSize=12;startSize=8;endSize=8;endArrow=none;endFill=0;strokeWidth=2;" parent="1" source="HwPFHqp_LilTzUDiQz0i-138" target="HwPFHqp_LilTzUDiQz0i-130" edge="1">
          <mxGeometry relative="1" as="geometry" />
        </mxCell>
        <mxCell id="FHESCMoN95WrOvaPs308-1" style="edgeStyle=orthogonalEdgeStyle;rounded=0;orthogonalLoop=1;jettySize=auto;html=1;exitX=0.5;exitY=1;exitDx=0;exitDy=0;entryX=0;entryY=0.5;entryDx=0;entryDy=0;endArrow=none;endFill=0;strokeWidth=2;" parent="1" source="HwPFHqp_LilTzUDiQz0i-18" target="HwPFHqp_LilTzUDiQz0i-44" edge="1">
          <mxGeometry relative="1" as="geometry" />
        </mxCell>
        <mxCell id="FHESCMoN95WrOvaPs308-24" style="edgeStyle=orthogonalEdgeStyle;rounded=0;orthogonalLoop=1;jettySize=auto;html=1;exitX=0.5;exitY=0;exitDx=0;exitDy=0;entryX=1;entryY=0.5;entryDx=0;entryDy=0;endArrow=none;endFill=0;strokeWidth=2;" parent="1" source="HwPFHqp_LilTzUDiQz0i-18" target="HwPFHqp_LilTzUDiQz0i-164" edge="1">
          <mxGeometry relative="1" as="geometry" />
        </mxCell>
        <mxCell id="FHESCMoN95WrOvaPs308-25" style="edgeStyle=orthogonalEdgeStyle;rounded=0;orthogonalLoop=1;jettySize=auto;html=1;exitX=0.75;exitY=0;exitDx=0;exitDy=0;entryX=0;entryY=0.5;entryDx=0;entryDy=0;endArrow=none;endFill=0;strokeWidth=2;" parent="1" source="HwPFHqp_LilTzUDiQz0i-18" target="HwPFHqp_LilTzUDiQz0i-138" edge="1">
          <mxGeometry relative="1" as="geometry" />
        </mxCell>
        <mxCell id="LdOhWxeoxdTWi-fPVQRp-2" style="edgeStyle=orthogonalEdgeStyle;rounded=0;orthogonalLoop=1;jettySize=auto;html=1;entryX=0.452;entryY=0.985;entryDx=0;entryDy=0;entryPerimeter=0;fontSize=12;startSize=8;endSize=8;exitX=0;exitY=0.25;exitDx=0;exitDy=0;endArrow=none;endFill=0;strokeWidth=2;" parent="1" source="HwPFHqp_LilTzUDiQz0i-18" edge="1">
          <mxGeometry relative="1" as="geometry">
            <mxPoint x="2618" y="2150.5" as="sourcePoint" />
            <mxPoint x="1735.9199999999996" y="1518.6499999999996" as="targetPoint" />
          </mxGeometry>
        </mxCell>
        <mxCell id="HwPFHqp_LilTzUDiQz0i-18" value="institude" style="html=1;overflow=block;blockSpacing=1;whiteSpace=wrap;fontSize=16.7;fontColor=#3a414a;spacing=9;strokeColor=#3a414a;strokeOpacity=100;rounded=1;absoluteArcSize=1;arcSize=9;strokeWidth=0.8;lucidId=Kh4Z5rDDQchC;" parent="1" vertex="1">
          <mxGeometry x="2602" y="2128" width="120" height="90" as="geometry" />
        </mxCell>
        <mxCell id="FHESCMoN95WrOvaPs308-23" style="edgeStyle=orthogonalEdgeStyle;rounded=0;orthogonalLoop=1;jettySize=auto;html=1;exitX=0.5;exitY=1;exitDx=0;exitDy=0;entryX=1;entryY=0;entryDx=0;entryDy=0;endArrow=none;endFill=0;" parent="1" source="HwPFHqp_LilTzUDiQz0i-19" target="HwPFHqp_LilTzUDiQz0i-18" edge="1">
          <mxGeometry relative="1" as="geometry" />
        </mxCell>
        <mxCell id="HwPFHqp_LilTzUDiQz0i-19" value="type id" style="html=1;overflow=block;blockSpacing=1;whiteSpace=wrap;rounded=1;arcSize=50;fontSize=16.7;fontColor=#3a414a;spacing=3.8;strokeColor=#3a414a;strokeOpacity=100;strokeWidth=0.8;lucidId=7h4ZL8PBXV1u;" parent="1" vertex="1">
          <mxGeometry x="2737" y="2038" width="90" height="60" as="geometry" />
        </mxCell>
        <mxCell id="FHESCMoN95WrOvaPs308-10" style="edgeStyle=orthogonalEdgeStyle;rounded=0;orthogonalLoop=1;jettySize=auto;html=1;exitX=0.5;exitY=1;exitDx=0;exitDy=0;entryX=0;entryY=0;entryDx=0;entryDy=0;endArrow=none;endFill=0;" parent="1" source="HwPFHqp_LilTzUDiQz0i-20" target="HwPFHqp_LilTzUDiQz0i-18" edge="1">
          <mxGeometry relative="1" as="geometry" />
        </mxCell>
        <mxCell id="HwPFHqp_LilTzUDiQz0i-20" value="&lt;u&gt;id&lt;/u&gt;" style="html=1;overflow=block;blockSpacing=1;whiteSpace=wrap;rounded=1;arcSize=50;fontSize=16.7;fontColor=#3a414a;spacing=3.8;strokeColor=#3a414a;strokeOpacity=100;strokeWidth=0.8;lucidId=sk4ZaDjWLz8-;" parent="1" vertex="1">
          <mxGeometry x="2497" y="2038" width="90" height="60" as="geometry" />
        </mxCell>
        <mxCell id="FHESCMoN95WrOvaPs308-7" style="edgeStyle=orthogonalEdgeStyle;rounded=0;orthogonalLoop=1;jettySize=auto;html=1;exitX=1;exitY=0.5;exitDx=0;exitDy=0;entryX=0.25;entryY=1;entryDx=0;entryDy=0;endArrow=none;endFill=0;" parent="1" source="HwPFHqp_LilTzUDiQz0i-21" target="HwPFHqp_LilTzUDiQz0i-18" edge="1">
          <mxGeometry relative="1" as="geometry" />
        </mxCell>
        <mxCell id="HwPFHqp_LilTzUDiQz0i-21" value="name" style="html=1;overflow=block;blockSpacing=1;whiteSpace=wrap;rounded=1;arcSize=50;fontSize=16.7;fontColor=#3a414a;spacing=3.8;strokeColor=#3a414a;strokeOpacity=100;strokeWidth=0.8;lucidId=Dk4Z4ZrCuukX;" parent="1" vertex="1">
          <mxGeometry x="2497" y="2222" width="90" height="60" as="geometry" />
        </mxCell>
        <mxCell id="FHESCMoN95WrOvaPs308-6" style="edgeStyle=orthogonalEdgeStyle;rounded=0;orthogonalLoop=1;jettySize=auto;html=1;exitX=0;exitY=0.5;exitDx=0;exitDy=0;entryX=0.75;entryY=1;entryDx=0;entryDy=0;endArrow=none;endFill=0;" parent="1" source="HwPFHqp_LilTzUDiQz0i-22" target="HwPFHqp_LilTzUDiQz0i-18" edge="1">
          <mxGeometry relative="1" as="geometry" />
        </mxCell>
        <mxCell id="HwPFHqp_LilTzUDiQz0i-22" value="executive staff" style="html=1;overflow=block;blockSpacing=1;whiteSpace=wrap;rounded=1;arcSize=50;fontSize=16.7;fontColor=#3a414a;spacing=3.8;strokeColor=#3a414a;strokeOpacity=100;strokeWidth=0.8;lucidId=Ql4Zvu3_fQL2;" parent="1" vertex="1">
          <mxGeometry x="2737" y="2222" width="90" height="60" as="geometry" />
        </mxCell>
        <mxCell id="HwPFHqp_LilTzUDiQz0i-23" value="" style="html=1;jettySize=18;whiteSpace=wrap;fontSize=13;strokeColor=#3a414a;strokeOpacity=100;strokeWidth=0.8;rounded=1;arcSize=12;edgeStyle=orthogonalEdgeStyle;startArrow=none;endArrow=block;endFill=1;lucidId=xm4Z25uVGyIg;" parent="1" edge="1">
          <mxGeometry width="100" height="100" relative="1" as="geometry">
            <Array as="points" />
            <mxPoint x="2947" y="2067" as="sourcePoint" />
            <mxPoint x="2947" y="2067" as="targetPoint" />
          </mxGeometry>
        </mxCell>
        <mxCell id="HwPFHqp_LilTzUDiQz0i-24" value="budget" style="html=1;overflow=block;blockSpacing=1;whiteSpace=wrap;rounded=1;arcSize=50;fontSize=16.7;fontColor=#3a414a;spacing=3.8;strokeColor=#3a414a;strokeOpacity=100;strokeWidth=0.8;lucidId=Hm4Z8wLVr.C2;" parent="1" vertex="1">
          <mxGeometry x="2857" y="2038" width="90" height="60" as="geometry" />
        </mxCell>
        <mxCell id="HwPFHqp_LilTzUDiQz0i-29" value="" style="html=1;jettySize=18;whiteSpace=wrap;fontSize=13;strokeColor=#3a414a;strokeOpacity=100;strokeWidth=0.8;rounded=1;arcSize=12;edgeStyle=orthogonalEdgeStyle;startArrow=none;endArrow=none;endFill=0;exitX=0.5;exitY=1.006;exitPerimeter=0;entryX=1.003;entryY=0.118;entryPerimeter=0;lucidId=Ko4ZkA2iEqQf;" parent="1" source="HwPFHqp_LilTzUDiQz0i-24" target="HwPFHqp_LilTzUDiQz0i-18" edge="1">
          <mxGeometry width="100" height="100" relative="1" as="geometry">
            <Array as="points" />
          </mxGeometry>
        </mxCell>
        <mxCell id="HwPFHqp_LilTzUDiQz0i-30" value="" style="html=1;jettySize=18;whiteSpace=wrap;fontSize=13;strokeColor=#3a414a;strokeOpacity=100;strokeWidth=0.8;rounded=1;arcSize=12;edgeStyle=orthogonalEdgeStyle;startArrow=none;endArrow=none;endFill=0;exitX=-0.003;exitY=0.5;exitPerimeter=0;entryX=0.773;entryY=-0.004;entryPerimeter=0;lucidId=6p4Zuk85jJdd;" parent="1" source="HwPFHqp_LilTzUDiQz0i-13" target="HwPFHqp_LilTzUDiQz0i-10" edge="1">
          <mxGeometry width="100" height="100" relative="1" as="geometry">
            <Array as="points" />
          </mxGeometry>
        </mxCell>
        <mxCell id="HwPFHqp_LilTzUDiQz0i-31" style="edgeStyle=orthogonalEdgeStyle;rounded=0;orthogonalLoop=1;jettySize=auto;html=1;entryX=0;entryY=0.25;entryDx=0;entryDy=0;fontSize=12;startSize=8;endSize=8;exitX=0.5;exitY=1;exitDx=0;exitDy=0;endArrow=none;endFill=0;" parent="1" source="HwPFHqp_LilTzUDiQz0i-32" target="HwPFHqp_LilTzUDiQz0i-10" edge="1">
          <mxGeometry relative="1" as="geometry" />
        </mxCell>
        <mxCell id="HwPFHqp_LilTzUDiQz0i-32" value="titlte" style="html=1;overflow=block;blockSpacing=1;whiteSpace=wrap;rounded=1;arcSize=50;fontSize=16.7;fontColor=#3a414a;spacing=3.8;strokeColor=#3a414a;strokeOpacity=100;strokeWidth=0.8;lucidId=Xq4ZPL1HHl.v;" parent="1" vertex="1">
          <mxGeometry x="2320" y="1325" width="120" height="60" as="geometry" />
        </mxCell>
        <mxCell id="HwPFHqp_LilTzUDiQz0i-35" style="edgeStyle=none;curved=1;rounded=0;orthogonalLoop=1;jettySize=auto;html=1;exitX=0;exitY=0.5;exitDx=0;exitDy=0;entryX=1;entryY=0.5;entryDx=0;entryDy=0;fontSize=12;startSize=8;endSize=8;endArrow=none;endFill=0;strokeWidth=2;" parent="1" source="HwPFHqp_LilTzUDiQz0i-36" target="HwPFHqp_LilTzUDiQz0i-203" edge="1">
          <mxGeometry relative="1" as="geometry" />
        </mxCell>
        <mxCell id="HwPFHqp_LilTzUDiQz0i-36" value="researcher" style="html=1;overflow=block;blockSpacing=1;whiteSpace=wrap;fontSize=16.7;fontColor=#3a414a;spacing=9;strokeColor=#3a414a;strokeOpacity=100;rounded=1;absoluteArcSize=1;arcSize=9;strokeWidth=0.8;lucidId=cv4ZlEz9Fdci;" parent="1" vertex="1">
          <mxGeometry x="1625" y="1430" width="210" height="90" as="geometry" />
        </mxCell>
        <mxCell id="FHESCMoN95WrOvaPs308-42" style="edgeStyle=orthogonalEdgeStyle;rounded=0;orthogonalLoop=1;jettySize=auto;html=1;exitX=0.5;exitY=0;exitDx=0;exitDy=0;entryX=0.831;entryY=1.05;entryDx=0;entryDy=0;entryPerimeter=0;endArrow=none;endFill=0;" parent="1" source="HwPFHqp_LilTzUDiQz0i-37" target="HwPFHqp_LilTzUDiQz0i-36" edge="1">
          <mxGeometry relative="1" as="geometry" />
        </mxCell>
        <mxCell id="HwPFHqp_LilTzUDiQz0i-37" value="&lt;u&gt;id&lt;/u&gt;" style="html=1;overflow=block;blockSpacing=1;whiteSpace=wrap;rounded=1;arcSize=50;fontSize=16.7;fontColor=#3a414a;spacing=3.8;strokeColor=#3a414a;strokeOpacity=100;strokeWidth=0.8;lucidId=Hv4ZFkdMAi0.;" parent="1" vertex="1">
          <mxGeometry x="1740" y="1570" width="120" height="60" as="geometry" />
        </mxCell>
        <mxCell id="FHESCMoN95WrOvaPs308-37" style="edgeStyle=orthogonalEdgeStyle;rounded=0;orthogonalLoop=1;jettySize=auto;html=1;exitX=0;exitY=0.5;exitDx=0;exitDy=0;entryX=1;entryY=0;entryDx=0;entryDy=0;endArrow=none;endFill=0;" parent="1" source="HwPFHqp_LilTzUDiQz0i-40" target="HwPFHqp_LilTzUDiQz0i-164" edge="1">
          <mxGeometry relative="1" as="geometry" />
        </mxCell>
        <mxCell id="HwPFHqp_LilTzUDiQz0i-40" value="salary" style="html=1;overflow=block;blockSpacing=1;whiteSpace=wrap;rounded=1;arcSize=50;fontSize=16.7;fontColor=#3a414a;spacing=3.8;strokeColor=#3a414a;strokeOpacity=100;strokeWidth=0.8;lucidId=UP4Z74KVq56b;" parent="1" vertex="1">
          <mxGeometry x="2070" y="1681.5" width="120" height="60" as="geometry" />
        </mxCell>
        <mxCell id="HwPFHqp_LilTzUDiQz0i-41" value="n" style="text;strokeColor=none;align=center;fillColor=none;html=1;verticalAlign=middle;whiteSpace=wrap;rounded=0;" parent="1" vertex="1">
          <mxGeometry x="3065" y="2360" width="60" height="30" as="geometry" />
        </mxCell>
        <mxCell id="HwPFHqp_LilTzUDiQz0i-42" value="budget" style="html=1;overflow=block;blockSpacing=1;whiteSpace=wrap;rounded=1;arcSize=50;fontSize=16.7;fontColor=#3a414a;spacing=3.8;strokeColor=#3a414a;strokeOpacity=100;strokeWidth=0.8;lucidId=ve4Zq9YiYnei;" parent="1" vertex="1">
          <mxGeometry x="2760" y="1530" width="120" height="60" as="geometry" />
        </mxCell>
        <mxCell id="HwPFHqp_LilTzUDiQz0i-43" value="" style="html=1;jettySize=18;whiteSpace=wrap;fontSize=13;strokeColor=#3a414a;strokeOpacity=100;strokeWidth=0.8;rounded=1;arcSize=12;edgeStyle=orthogonalEdgeStyle;startArrow=none;endArrow=none;endFill=0;exitX=-0.003;exitY=0.5;exitPerimeter=0;entryX=0.849;entryY=1.004;entryPerimeter=0;lucidId=6p4Zuk85jJdd;entryDx=0;entryDy=0;" parent="1" source="HwPFHqp_LilTzUDiQz0i-42" target="HwPFHqp_LilTzUDiQz0i-10" edge="1">
          <mxGeometry width="100" height="100" relative="1" as="geometry">
            <Array as="points">
              <mxPoint x="2746" y="1560" />
            </Array>
            <mxPoint x="2769.5" y="1599" as="targetPoint" />
          </mxGeometry>
        </mxCell>
        <mxCell id="HwPFHqp_LilTzUDiQz0i-44" value="has" style="rhombus;whiteSpace=wrap;html=1;fontSize=16.7;strokeColor=default;fontColor=#3a414a;spacing=9;rounded=0;arcSize=9;strokeWidth=1;perimeterSpacing=1;shadow=1;sketch=1;curveFitting=1;jiggle=2;fillColor=none;gradientColor=default;" parent="1" vertex="1">
          <mxGeometry x="2985" y="2350" width="80" height="80" as="geometry" />
        </mxCell>
        <mxCell id="HwPFHqp_LilTzUDiQz0i-47" value="" style="edgeStyle=none;curved=1;rounded=0;orthogonalLoop=1;jettySize=auto;html=1;fontSize=12;startSize=8;endSize=8;endArrow=none;endFill=0;strokeWidth=2;" parent="1" target="HwPFHqp_LilTzUDiQz0i-109" edge="1">
          <mxGeometry relative="1" as="geometry">
            <mxPoint x="3612" y="2145" as="sourcePoint" />
          </mxGeometry>
        </mxCell>
        <mxCell id="FHESCMoN95WrOvaPs308-17" style="edgeStyle=orthogonalEdgeStyle;rounded=0;orthogonalLoop=1;jettySize=auto;html=1;exitX=0.25;exitY=0;exitDx=0;exitDy=0;entryX=1;entryY=0.5;entryDx=0;entryDy=0;endArrow=none;endFill=0;strokeWidth=2;" parent="1" target="HwPFHqp_LilTzUDiQz0i-226" edge="1">
          <mxGeometry relative="1" as="geometry">
            <mxPoint x="3514.5" y="2115" as="sourcePoint" />
            <Array as="points">
              <mxPoint x="3515" y="2110" />
              <mxPoint x="3144" y="2110" />
              <mxPoint x="3144" y="1702" />
            </Array>
          </mxGeometry>
        </mxCell>
        <mxCell id="FHESCMoN95WrOvaPs308-22" style="edgeStyle=orthogonalEdgeStyle;rounded=0;orthogonalLoop=1;jettySize=auto;html=1;exitX=0.5;exitY=0;exitDx=0;exitDy=0;entryX=1;entryY=0.75;entryDx=0;entryDy=0;endArrow=none;endFill=0;" parent="1" source="HwPFHqp_LilTzUDiQz0i-52" edge="1">
          <mxGeometry relative="1" as="geometry">
            <mxPoint x="3612" y="2160" as="targetPoint" />
          </mxGeometry>
        </mxCell>
        <mxCell id="HwPFHqp_LilTzUDiQz0i-52" value="&lt;u&gt;id&lt;/u&gt;" style="html=1;overflow=block;blockSpacing=1;whiteSpace=wrap;rounded=1;arcSize=50;fontSize=16.7;fontColor=#3a414a;spacing=3.8;strokeColor=#3a414a;strokeOpacity=100;strokeWidth=0.8;lucidId=6m4Z5nEoqcxX;" parent="1" vertex="1">
          <mxGeometry x="3640" y="2230" width="90" height="60" as="geometry" />
        </mxCell>
        <mxCell id="FHESCMoN95WrOvaPs308-21" style="edgeStyle=orthogonalEdgeStyle;rounded=0;orthogonalLoop=1;jettySize=auto;html=1;exitX=0.5;exitY=0;exitDx=0;exitDy=0;entryX=0;entryY=0.5;entryDx=0;entryDy=0;endArrow=none;endFill=0;" parent="1" source="HwPFHqp_LilTzUDiQz0i-54" target="LdOhWxeoxdTWi-fPVQRp-8" edge="1">
          <mxGeometry relative="1" as="geometry">
            <mxPoint x="3482" y="2145" as="targetPoint" />
          </mxGeometry>
        </mxCell>
        <mxCell id="HwPFHqp_LilTzUDiQz0i-54" value="birthdate" style="html=1;overflow=block;blockSpacing=1;whiteSpace=wrap;rounded=1;arcSize=50;fontSize=16.7;fontColor=#3a414a;spacing=3.8;strokeColor=#3a414a;strokeOpacity=100;strokeWidth=0.8;lucidId=6m4Z5nEoqcxX;" parent="1" vertex="1">
          <mxGeometry x="3370" y="2230" width="90" height="60" as="geometry" />
        </mxCell>
        <mxCell id="FHESCMoN95WrOvaPs308-5" value="" style="edgeStyle=orthogonalEdgeStyle;rounded=0;orthogonalLoop=1;jettySize=auto;html=1;endArrow=none;endFill=0;" parent="1" source="HwPFHqp_LilTzUDiQz0i-56" edge="1">
          <mxGeometry relative="1" as="geometry">
            <Array as="points">
              <mxPoint x="3540" y="2064" />
            </Array>
            <mxPoint x="3540" y="2115" as="targetPoint" />
          </mxGeometry>
        </mxCell>
        <mxCell id="HwPFHqp_LilTzUDiQz0i-56" value="salary" style="html=1;overflow=block;blockSpacing=1;whiteSpace=wrap;rounded=1;arcSize=50;fontSize=16.7;fontColor=#3a414a;spacing=3.8;strokeColor=#3a414a;strokeOpacity=100;strokeWidth=0.8;lucidId=6m4Z5nEoqcxX;" parent="1" vertex="1">
          <mxGeometry x="3370" y="2034" width="90" height="60" as="geometry" />
        </mxCell>
        <mxCell id="HwPFHqp_LilTzUDiQz0i-57" value="" style="endArrow=none;html=1;rounded=0;fontSize=12;startSize=8;endSize=8;curved=1;exitX=0.633;exitY=0.026;exitDx=0;exitDy=0;exitPerimeter=0;endFill=0;strokeWidth=2;" parent="1" edge="1">
          <mxGeometry width="50" height="50" relative="1" as="geometry">
            <mxPoint x="2679.2149999999997" y="1415" as="sourcePoint" />
            <mxPoint x="2678.79" y="1157.66" as="targetPoint" />
          </mxGeometry>
        </mxCell>
        <mxCell id="HwPFHqp_LilTzUDiQz0i-58" value="has" style="rhombus;whiteSpace=wrap;html=1;fontSize=16;" parent="1" vertex="1">
          <mxGeometry x="2630" y="1175" width="97" height="90" as="geometry" />
        </mxCell>
        <mxCell id="HwPFHqp_LilTzUDiQz0i-59" value="" style="endArrow=none;html=1;rounded=0;fontSize=12;startSize=8;endSize=8;exitX=1;exitY=0.5;exitDx=0;exitDy=0;entryX=0.5;entryY=0;entryDx=0;entryDy=0;edgeStyle=orthogonalEdgeStyle;strokeWidth=2;" parent="1" source="HwPFHqp_LilTzUDiQz0i-60" target="HwPFHqp_LilTzUDiQz0i-58" edge="1">
          <mxGeometry width="50" height="50" relative="1" as="geometry">
            <mxPoint x="2596" y="1099.4099999999999" as="sourcePoint" />
            <mxPoint x="2749" y="1099.4099999999999" as="targetPoint" />
            <Array as="points">
              <mxPoint x="2424" y="1120" />
              <mxPoint x="2678" y="1120" />
            </Array>
          </mxGeometry>
        </mxCell>
        <mxCell id="HwPFHqp_LilTzUDiQz0i-60" value="research Activity field" style="rounded=0;whiteSpace=wrap;html=1;fontSize=16;" parent="1" vertex="1">
          <mxGeometry x="2284" y="1060" width="140" height="80" as="geometry" />
        </mxCell>
        <mxCell id="HwPFHqp_LilTzUDiQz0i-61" value="n" style="text;strokeColor=none;align=center;fillColor=none;html=1;verticalAlign=middle;whiteSpace=wrap;rounded=0;" parent="1" vertex="1">
          <mxGeometry x="2662" y="1145" width="60" height="30" as="geometry" />
        </mxCell>
        <mxCell id="HwPFHqp_LilTzUDiQz0i-62" value="1" style="text;strokeColor=none;align=center;fillColor=none;html=1;verticalAlign=middle;whiteSpace=wrap;rounded=0;" parent="1" vertex="1">
          <mxGeometry x="2662" y="1264" width="60" height="30" as="geometry" />
        </mxCell>
        <mxCell id="HwPFHqp_LilTzUDiQz0i-63" style="edgeStyle=orthogonalEdgeStyle;rounded=0;orthogonalLoop=1;jettySize=auto;html=1;fontSize=12;startSize=8;endSize=8;entryX=0.75;entryY=0;entryDx=0;entryDy=0;endArrow=none;endFill=0;" parent="1" source="HwPFHqp_LilTzUDiQz0i-64" target="HwPFHqp_LilTzUDiQz0i-60" edge="1">
          <mxGeometry relative="1" as="geometry">
            <mxPoint x="2424" y="1100" as="targetPoint" />
          </mxGeometry>
        </mxCell>
        <mxCell id="HwPFHqp_LilTzUDiQz0i-64" value="name" style="html=1;overflow=block;blockSpacing=1;whiteSpace=wrap;rounded=1;arcSize=50;fontSize=16.7;fontColor=#3a414a;spacing=3.8;strokeColor=#3a414a;strokeOpacity=100;strokeWidth=0.8;lucidId=gp4ZOOJwNQIq;" parent="1" vertex="1">
          <mxGeometry x="2424" y="960" width="120" height="60" as="geometry" />
        </mxCell>
        <mxCell id="HwPFHqp_LilTzUDiQz0i-65" style="edgeStyle=none;curved=1;rounded=0;orthogonalLoop=1;jettySize=auto;html=1;fontSize=12;startSize=8;endSize=8;endArrow=none;endFill=0;" parent="1" source="HwPFHqp_LilTzUDiQz0i-66" edge="1">
          <mxGeometry relative="1" as="geometry">
            <mxPoint x="2354" y="1060" as="targetPoint" />
          </mxGeometry>
        </mxCell>
        <mxCell id="HwPFHqp_LilTzUDiQz0i-66" value="&lt;u&gt;id&lt;/u&gt;" style="html=1;overflow=block;blockSpacing=1;whiteSpace=wrap;rounded=1;arcSize=50;fontSize=16.7;fontColor=#3a414a;spacing=3.8;strokeColor=#3a414a;strokeOpacity=100;strokeWidth=0.8;lucidId=gp4ZOOJwNQIq;" parent="1" vertex="1">
          <mxGeometry x="2294" y="960" width="120" height="60" as="geometry" />
        </mxCell>
        <mxCell id="HwPFHqp_LilTzUDiQz0i-67" value="1" style="text;strokeColor=none;align=center;fillColor=none;html=1;verticalAlign=middle;whiteSpace=wrap;rounded=0;" parent="1" vertex="1">
          <mxGeometry x="2920" y="2360" width="60" height="30" as="geometry" />
        </mxCell>
        <mxCell id="HwPFHqp_LilTzUDiQz0i-68" style="edgeStyle=orthogonalEdgeStyle;rounded=0;orthogonalLoop=1;jettySize=auto;html=1;entryX=0.5;entryY=1;entryDx=0;entryDy=0;" parent="1" edge="1">
          <mxGeometry relative="1" as="geometry">
            <mxPoint x="2073.025641025641" y="1793" as="sourcePoint" />
          </mxGeometry>
        </mxCell>
        <mxCell id="HwPFHqp_LilTzUDiQz0i-69" style="edgeStyle=orthogonalEdgeStyle;rounded=0;orthogonalLoop=1;jettySize=auto;html=1;entryX=0.5;entryY=1;entryDx=0;entryDy=0;" parent="1" edge="1">
          <mxGeometry relative="1" as="geometry">
            <Array as="points">
              <mxPoint x="2073" y="1773" />
              <mxPoint x="2020" y="1773" />
            </Array>
            <mxPoint x="2073.025641025641" y="1793" as="sourcePoint" />
          </mxGeometry>
        </mxCell>
        <mxCell id="HwPFHqp_LilTzUDiQz0i-231" value="" style="edgeStyle=orthogonalEdgeStyle;rounded=0;orthogonalLoop=1;jettySize=auto;html=1;endArrow=none;endFill=0;" parent="1" source="HwPFHqp_LilTzUDiQz0i-71" target="HwPFHqp_LilTzUDiQz0i-73" edge="1">
          <mxGeometry relative="1" as="geometry" />
        </mxCell>
        <mxCell id="HwPFHqp_LilTzUDiQz0i-71" value="&lt;div class=&quot;lRu31&quot;&gt;start time&lt;br&gt;&lt;/div&gt;" style="html=1;overflow=block;blockSpacing=1;whiteSpace=wrap;rounded=1;arcSize=50;fontSize=16.7;fontColor=#3a414a;spacing=3.8;strokeColor=#3a414a;strokeOpacity=100;strokeWidth=0.8;lucidId=jr4ZjSVFmvB8;" parent="1" vertex="1">
          <mxGeometry x="2234" y="1539.5" width="120" height="60" as="geometry" />
        </mxCell>
        <mxCell id="HwPFHqp_LilTzUDiQz0i-230" style="edgeStyle=orthogonalEdgeStyle;rounded=0;orthogonalLoop=1;jettySize=auto;html=1;exitX=1;exitY=0.5;exitDx=0;exitDy=0;entryX=0.151;entryY=1;entryDx=0;entryDy=0;entryPerimeter=0;endArrow=none;endFill=0;" parent="1" source="HwPFHqp_LilTzUDiQz0i-73" target="HwPFHqp_LilTzUDiQz0i-10" edge="1">
          <mxGeometry relative="1" as="geometry" />
        </mxCell>
        <mxCell id="HwPFHqp_LilTzUDiQz0i-73" value="time" style="html=1;overflow=block;blockSpacing=1;whiteSpace=wrap;rounded=1;arcSize=50;fontSize=16.7;fontColor=#3a414a;spacing=3.8;strokeColor=#3a414a;strokeOpacity=100;strokeWidth=0.8;lucidId=jr4ZjSVFmvB8;" parent="1" vertex="1">
          <mxGeometry x="2435" y="1539.5" width="120" height="60" as="geometry" />
        </mxCell>
        <mxCell id="HwPFHqp_LilTzUDiQz0i-74" value="&lt;div class=&quot;lRu31&quot;&gt;category id&lt;br&gt;&lt;/div&gt;" style="html=1;overflow=block;blockSpacing=1;whiteSpace=wrap;rounded=1;arcSize=50;fontSize=16.7;fontColor=#3a414a;spacing=3.8;strokeColor=#3a414a;strokeOpacity=100;strokeWidth=0.8;lucidId=jr4ZjSVFmvB8;" parent="1" vertex="1">
          <mxGeometry x="2607" y="1539.5" width="120" height="60" as="geometry" />
        </mxCell>
        <mxCell id="FHESCMoN95WrOvaPs308-27" style="edgeStyle=orthogonalEdgeStyle;rounded=0;orthogonalLoop=1;jettySize=auto;html=1;exitX=0;exitY=0.5;exitDx=0;exitDy=0;entryX=0.692;entryY=-0.047;entryDx=0;entryDy=0;entryPerimeter=0;endArrow=none;endFill=0;" parent="1" source="HwPFHqp_LilTzUDiQz0i-76" target="HwPFHqp_LilTzUDiQz0i-10" edge="1">
          <mxGeometry relative="1" as="geometry" />
        </mxCell>
        <mxCell id="HwPFHqp_LilTzUDiQz0i-76" value="corresponding researcher id" style="html=1;overflow=block;blockSpacing=1;whiteSpace=wrap;rounded=1;arcSize=50;fontSize=16.7;fontColor=#3a414a;spacing=3.8;strokeColor=#3a414a;strokeOpacity=100;strokeWidth=0.8;lucidId=-R4Z3._WpTE-;" parent="1" vertex="1">
          <mxGeometry x="2750" y="1250" width="120" height="60" as="geometry" />
        </mxCell>
        <mxCell id="HwPFHqp_LilTzUDiQz0i-232" value="" style="edgeStyle=orthogonalEdgeStyle;rounded=0;orthogonalLoop=1;jettySize=auto;html=1;endArrow=none;endFill=0;" parent="1" source="HwPFHqp_LilTzUDiQz0i-78" target="HwPFHqp_LilTzUDiQz0i-73" edge="1">
          <mxGeometry relative="1" as="geometry" />
        </mxCell>
        <mxCell id="HwPFHqp_LilTzUDiQz0i-78" value="holding time" style="html=1;overflow=block;blockSpacing=1;whiteSpace=wrap;rounded=1;arcSize=50;fontSize=16.7;fontColor=#3a414a;spacing=3.8;strokeColor=#3a414a;strokeOpacity=100;strokeWidth=0.8;lucidId=jr4ZjSVFmvB8;" parent="1" vertex="1">
          <mxGeometry x="2435" y="1631" width="120" height="60" as="geometry" />
        </mxCell>
        <mxCell id="HwPFHqp_LilTzUDiQz0i-229" style="edgeStyle=orthogonalEdgeStyle;rounded=0;orthogonalLoop=1;jettySize=auto;html=1;exitX=0;exitY=0.5;exitDx=0;exitDy=0;entryX=1;entryY=0.75;entryDx=0;entryDy=0;endArrow=none;endFill=0;" parent="1" source="HwPFHqp_LilTzUDiQz0i-80" target="HwPFHqp_LilTzUDiQz0i-10" edge="1">
          <mxGeometry relative="1" as="geometry">
            <Array as="points">
              <mxPoint x="2920" y="1483" />
            </Array>
          </mxGeometry>
        </mxCell>
        <mxCell id="HwPFHqp_LilTzUDiQz0i-80" value="holding place" style="html=1;overflow=block;blockSpacing=1;whiteSpace=wrap;rounded=1;arcSize=50;fontSize=16.7;fontColor=#3a414a;spacing=3.8;strokeColor=#3a414a;strokeOpacity=100;strokeWidth=0.8;lucidId=jr4ZjSVFmvB8;" parent="1" vertex="1">
          <mxGeometry x="2920" y="1530" width="120" height="60" as="geometry" />
        </mxCell>
        <mxCell id="HwPFHqp_LilTzUDiQz0i-233" style="edgeStyle=orthogonalEdgeStyle;rounded=0;orthogonalLoop=1;jettySize=auto;html=1;exitX=0;exitY=0.5;exitDx=0;exitDy=0;entryX=0.037;entryY=0.225;entryDx=0;entryDy=0;endArrow=none;endFill=0;entryPerimeter=0;" parent="1" source="HwPFHqp_LilTzUDiQz0i-82" target="HwPFHqp_LilTzUDiQz0i-73" edge="1">
          <mxGeometry relative="1" as="geometry">
            <mxPoint x="2410" y="1550" as="targetPoint" />
            <Array as="points">
              <mxPoint x="2415" y="1750" />
              <mxPoint x="2415" y="1553" />
            </Array>
          </mxGeometry>
        </mxCell>
        <mxCell id="HwPFHqp_LilTzUDiQz0i-82" value="&lt;div class=&quot;lRu31&quot;&gt;time of accepting by publication&lt;br&gt;&lt;/div&gt;" style="html=1;overflow=block;blockSpacing=1;whiteSpace=wrap;rounded=1;arcSize=50;fontSize=16.7;fontColor=#3a414a;spacing=3.8;strokeColor=#3a414a;strokeOpacity=100;strokeWidth=0.8;lucidId=jr4ZjSVFmvB8;" parent="1" vertex="1">
          <mxGeometry x="2435" y="1720" width="120" height="60" as="geometry" />
        </mxCell>
        <mxCell id="HwPFHqp_LilTzUDiQz0i-234" style="edgeStyle=orthogonalEdgeStyle;rounded=0;orthogonalLoop=1;jettySize=auto;html=1;exitX=1;exitY=0.5;exitDx=0;exitDy=0;entryX=0.168;entryY=0.984;entryDx=0;entryDy=0;endArrow=none;endFill=0;entryPerimeter=0;" parent="1" target="HwPFHqp_LilTzUDiQz0i-73" edge="1">
          <mxGeometry relative="1" as="geometry">
            <mxPoint x="2354" y="1661" as="sourcePoint" />
            <mxPoint x="2435" y="1584.4999999999998" as="targetPoint" />
            <Array as="points">
              <mxPoint x="2394" y="1661" />
              <mxPoint x="2394" y="1599" />
              <mxPoint x="2439" y="1599" />
            </Array>
          </mxGeometry>
        </mxCell>
        <mxCell id="HwPFHqp_LilTzUDiQz0i-84" value="time of sending to publication" style="html=1;overflow=block;blockSpacing=1;whiteSpace=wrap;rounded=1;arcSize=50;fontSize=16.7;fontColor=#3a414a;spacing=3.8;strokeColor=#3a414a;strokeOpacity=100;strokeWidth=0.8;lucidId=jr4ZjSVFmvB8;" parent="1" vertex="1">
          <mxGeometry x="2234" y="1631" width="120" height="60" as="geometry" />
        </mxCell>
        <mxCell id="HwPFHqp_LilTzUDiQz0i-85" value="pages number" style="html=1;overflow=block;blockSpacing=1;whiteSpace=wrap;rounded=1;arcSize=50;fontSize=16.7;fontColor=#3a414a;spacing=3.8;strokeColor=#3a414a;strokeOpacity=100;strokeWidth=0.8;lucidId=ve4Zq9YiYnei;" parent="1" vertex="1">
          <mxGeometry x="2514" y="1250" width="120" height="60" as="geometry" />
        </mxCell>
        <mxCell id="HwPFHqp_LilTzUDiQz0i-86" value="" style="html=1;jettySize=18;whiteSpace=wrap;fontSize=13;strokeColor=#3a414a;strokeOpacity=100;strokeWidth=0.8;rounded=1;arcSize=12;edgeStyle=orthogonalEdgeStyle;startArrow=none;endArrow=none;endFill=0;exitX=1;exitY=0.5;entryX=0.476;entryY=0.011;entryPerimeter=0;lucidId=6p4Zuk85jJdd;entryDx=0;entryDy=0;exitDx=0;exitDy=0;" parent="1" source="HwPFHqp_LilTzUDiQz0i-85" target="HwPFHqp_LilTzUDiQz0i-10" edge="1">
          <mxGeometry width="100" height="100" relative="1" as="geometry">
            <Array as="points">
              <mxPoint x="2660" y="1280" />
              <mxPoint x="2660" y="1416" />
            </Array>
            <mxPoint x="2493" y="1340" as="targetPoint" />
          </mxGeometry>
        </mxCell>
        <mxCell id="HwPFHqp_LilTzUDiQz0i-87" value="" style="edgeStyle=none;curved=1;rounded=0;orthogonalLoop=1;jettySize=auto;html=1;fontSize=12;startSize=8;endSize=8;endArrow=none;endFill=0;strokeWidth=2;" parent="1" source="HwPFHqp_LilTzUDiQz0i-88" target="HwPFHqp_LilTzUDiQz0i-89" edge="1">
          <mxGeometry relative="1" as="geometry" />
        </mxCell>
        <mxCell id="HwPFHqp_LilTzUDiQz0i-88" value="has" style="rhombus;whiteSpace=wrap;html=1;fontSize=16.7;strokeColor=#3a414a;fontColor=#3a414a;spacing=9;rounded=1;arcSize=9;strokeWidth=0.8;" parent="1" vertex="1">
          <mxGeometry x="2985" y="2133" width="80" height="80" as="geometry" />
        </mxCell>
        <mxCell id="HwPFHqp_LilTzUDiQz0i-89" value="institute Type" style="whiteSpace=wrap;html=1;fontSize=16.7;strokeColor=#3a414a;fontColor=#3a414a;spacing=9;rounded=1;arcSize=9;strokeWidth=0.8;" parent="1" vertex="1">
          <mxGeometry x="3165" y="2143" width="120" height="60" as="geometry" />
        </mxCell>
        <mxCell id="HwPFHqp_LilTzUDiQz0i-90" style="edgeStyle=none;curved=1;rounded=0;orthogonalLoop=1;jettySize=auto;html=1;entryX=0;entryY=0.5;entryDx=0;entryDy=0;fontSize=12;startSize=8;endSize=8;endArrow=none;endFill=0;strokeWidth=2;" parent="1" source="HwPFHqp_LilTzUDiQz0i-91" target="HwPFHqp_LilTzUDiQz0i-130" edge="1">
          <mxGeometry relative="1" as="geometry" />
        </mxCell>
        <mxCell id="HwPFHqp_LilTzUDiQz0i-91" value="excute" style="rhombus;whiteSpace=wrap;html=1;fontSize=16;" parent="1" vertex="1">
          <mxGeometry x="2965" y="1425" width="80" height="80" as="geometry" />
        </mxCell>
        <mxCell id="HwPFHqp_LilTzUDiQz0i-92" value="" style="html=1;jettySize=18;whiteSpace=wrap;fontSize=13;strokeColor=#3a414a;strokeOpacity=100;strokeWidth=0.8;rounded=1;arcSize=12;edgeStyle=orthogonalEdgeStyle;startArrow=none;endArrow=block;endFill=1;lucidId=xm4Z25uVGyIg;" parent="1" edge="1">
          <mxGeometry width="100" height="100" relative="1" as="geometry">
            <Array as="points" />
            <mxPoint x="2957" y="2077" as="sourcePoint" />
            <mxPoint x="2957" y="2077" as="targetPoint" />
          </mxGeometry>
        </mxCell>
        <mxCell id="HwPFHqp_LilTzUDiQz0i-93" value="" style="html=1;jettySize=18;whiteSpace=wrap;fontSize=13;strokeColor=#3a414a;strokeOpacity=100;strokeWidth=0.8;rounded=1;arcSize=12;edgeStyle=orthogonalEdgeStyle;startArrow=none;endArrow=block;endFill=1;lucidId=xm4Z25uVGyIg;" parent="1" edge="1">
          <mxGeometry width="100" height="100" relative="1" as="geometry">
            <Array as="points" />
            <mxPoint x="3215" y="2077" as="sourcePoint" />
            <mxPoint x="3215" y="2077" as="targetPoint" />
          </mxGeometry>
        </mxCell>
        <mxCell id="HwPFHqp_LilTzUDiQz0i-94" value="" style="edgeStyle=none;curved=1;rounded=0;orthogonalLoop=1;jettySize=auto;html=1;fontSize=12;startSize=8;endSize=8;endArrow=none;endFill=0;" parent="1" source="HwPFHqp_LilTzUDiQz0i-95" target="HwPFHqp_LilTzUDiQz0i-89" edge="1">
          <mxGeometry relative="1" as="geometry" />
        </mxCell>
        <mxCell id="HwPFHqp_LilTzUDiQz0i-95" value="id" style="html=1;overflow=block;blockSpacing=1;whiteSpace=wrap;rounded=1;arcSize=50;fontSize=16.7;fontColor=#3a414a;spacing=3.8;strokeColor=#3a414a;strokeOpacity=100;strokeWidth=0.8;lucidId=Hm4Z8wLVr.C2;" parent="1" vertex="1">
          <mxGeometry x="3180" y="2249" width="90" height="56" as="geometry" />
        </mxCell>
        <mxCell id="HwPFHqp_LilTzUDiQz0i-96" value="" style="html=1;jettySize=18;whiteSpace=wrap;fontSize=13;strokeColor=#3a414a;strokeOpacity=100;strokeWidth=0.8;rounded=1;arcSize=12;edgeStyle=orthogonalEdgeStyle;startArrow=none;endArrow=block;endFill=1;lucidId=xm4Z25uVGyIg;" parent="1" edge="1">
          <mxGeometry width="100" height="100" relative="1" as="geometry">
            <Array as="points" />
            <mxPoint x="3225" y="2087" as="sourcePoint" />
            <mxPoint x="3225" y="2087" as="targetPoint" />
          </mxGeometry>
        </mxCell>
        <mxCell id="HwPFHqp_LilTzUDiQz0i-97" value="" style="html=1;jettySize=18;whiteSpace=wrap;fontSize=13;strokeColor=#3a414a;strokeOpacity=100;strokeWidth=0.8;rounded=1;arcSize=12;edgeStyle=orthogonalEdgeStyle;startArrow=none;endArrow=block;endFill=1;lucidId=xm4Z25uVGyIg;" parent="1" edge="1">
          <mxGeometry width="100" height="100" relative="1" as="geometry">
            <Array as="points" />
            <mxPoint x="3295" y="2063" as="sourcePoint" />
            <mxPoint x="3295" y="2063" as="targetPoint" />
          </mxGeometry>
        </mxCell>
        <mxCell id="HwPFHqp_LilTzUDiQz0i-98" value="" style="edgeStyle=none;curved=1;rounded=0;orthogonalLoop=1;jettySize=auto;html=1;fontSize=12;startSize=8;endSize=8;endArrow=none;endFill=0;" parent="1" source="HwPFHqp_LilTzUDiQz0i-99" target="HwPFHqp_LilTzUDiQz0i-89" edge="1">
          <mxGeometry relative="1" as="geometry" />
        </mxCell>
        <mxCell id="HwPFHqp_LilTzUDiQz0i-99" value="type" style="html=1;overflow=block;blockSpacing=1;whiteSpace=wrap;rounded=1;arcSize=50;fontSize=16.7;fontColor=#3a414a;spacing=3.8;strokeColor=#3a414a;strokeOpacity=100;strokeWidth=0.8;lucidId=Hm4Z8wLVr.C2;" parent="1" vertex="1">
          <mxGeometry x="3180" y="2034" width="90" height="60" as="geometry" />
        </mxCell>
        <mxCell id="HwPFHqp_LilTzUDiQz0i-100" value="" style="html=1;jettySize=18;whiteSpace=wrap;fontSize=13;strokeColor=#3a414a;strokeOpacity=100;strokeWidth=0.8;rounded=1;arcSize=12;edgeStyle=orthogonalEdgeStyle;startArrow=none;endArrow=block;endFill=1;lucidId=xm4Z25uVGyIg;" parent="1" edge="1">
          <mxGeometry width="100" height="100" relative="1" as="geometry">
            <Array as="points" />
            <mxPoint x="3305" y="2073" as="sourcePoint" />
            <mxPoint x="3305" y="2073" as="targetPoint" />
          </mxGeometry>
        </mxCell>
        <mxCell id="FHESCMoN95WrOvaPs308-20" value="" style="edgeStyle=orthogonalEdgeStyle;rounded=0;orthogonalLoop=1;jettySize=auto;html=1;endArrow=none;endFill=0;" parent="1" source="HwPFHqp_LilTzUDiQz0i-102" edge="1">
          <mxGeometry relative="1" as="geometry">
            <Array as="points">
              <mxPoint x="3567" y="2170" />
              <mxPoint x="3567" y="2170" />
            </Array>
            <mxPoint x="3567" y="2175" as="targetPoint" />
          </mxGeometry>
        </mxCell>
        <mxCell id="HwPFHqp_LilTzUDiQz0i-102" value="name" style="html=1;overflow=block;blockSpacing=1;whiteSpace=wrap;rounded=1;arcSize=50;fontSize=16.7;fontColor=#3a414a;spacing=3.8;strokeColor=#3a414a;strokeOpacity=100;strokeWidth=0.8;lucidId=Hm4Z8wLVr.C2;" parent="1" vertex="1">
          <mxGeometry x="3522" y="2230" width="90" height="60" as="geometry" />
        </mxCell>
        <mxCell id="HwPFHqp_LilTzUDiQz0i-103" value="" style="html=1;jettySize=18;whiteSpace=wrap;fontSize=13;strokeColor=#3a414a;strokeOpacity=100;strokeWidth=0.8;rounded=1;arcSize=12;edgeStyle=orthogonalEdgeStyle;startArrow=none;endArrow=block;endFill=1;lucidId=xm4Z25uVGyIg;" parent="1" edge="1">
          <mxGeometry width="100" height="100" relative="1" as="geometry">
            <Array as="points" />
            <mxPoint x="3764.44" y="2269" as="sourcePoint" />
            <mxPoint x="3764.44" y="2269" as="targetPoint" />
          </mxGeometry>
        </mxCell>
        <mxCell id="HwPFHqp_LilTzUDiQz0i-104" value="" style="html=1;jettySize=18;whiteSpace=wrap;fontSize=13;strokeColor=#3a414a;strokeOpacity=100;strokeWidth=0.8;rounded=1;arcSize=12;edgeStyle=orthogonalEdgeStyle;startArrow=none;endArrow=block;endFill=1;lucidId=xm4Z25uVGyIg;" parent="1" edge="1">
          <mxGeometry width="100" height="100" relative="1" as="geometry">
            <Array as="points" />
            <mxPoint x="3760" y="2069" as="sourcePoint" />
            <mxPoint x="3760" y="2069" as="targetPoint" />
          </mxGeometry>
        </mxCell>
        <mxCell id="FHESCMoN95WrOvaPs308-18" style="edgeStyle=orthogonalEdgeStyle;rounded=0;orthogonalLoop=1;jettySize=auto;html=1;exitX=0;exitY=0.5;exitDx=0;exitDy=0;entryX=0.75;entryY=0;entryDx=0;entryDy=0;endArrow=none;endFill=0;" parent="1" source="HwPFHqp_LilTzUDiQz0i-106" edge="1">
          <mxGeometry relative="1" as="geometry">
            <mxPoint x="3579.5" y="2115" as="targetPoint" />
          </mxGeometry>
        </mxCell>
        <mxCell id="HwPFHqp_LilTzUDiQz0i-106" value="post id " style="html=1;overflow=block;blockSpacing=1;whiteSpace=wrap;rounded=1;arcSize=50;fontSize=16.7;fontColor=#3a414a;spacing=3.8;strokeColor=#3a414a;strokeOpacity=100;strokeWidth=0.8;lucidId=Hm4Z8wLVr.C2;" parent="1" vertex="1">
          <mxGeometry x="3640" y="2034" width="90" height="60" as="geometry" />
        </mxCell>
        <mxCell id="HwPFHqp_LilTzUDiQz0i-107" value="" style="html=1;jettySize=18;whiteSpace=wrap;fontSize=13;strokeColor=#3a414a;strokeOpacity=100;strokeWidth=0.8;rounded=1;arcSize=12;edgeStyle=orthogonalEdgeStyle;startArrow=none;endArrow=block;endFill=1;lucidId=xm4Z25uVGyIg;" parent="1" edge="1">
          <mxGeometry width="100" height="100" relative="1" as="geometry">
            <Array as="points" />
            <mxPoint x="3770" y="2079" as="sourcePoint" />
            <mxPoint x="3770" y="2079" as="targetPoint" />
          </mxGeometry>
        </mxCell>
        <mxCell id="HwPFHqp_LilTzUDiQz0i-108" value="" style="edgeStyle=none;curved=1;rounded=0;orthogonalLoop=1;jettySize=auto;html=1;fontSize=12;startSize=8;endSize=8;endArrow=none;endFill=0;strokeWidth=2;" parent="1" source="HwPFHqp_LilTzUDiQz0i-109" target="HwPFHqp_LilTzUDiQz0i-112" edge="1">
          <mxGeometry relative="1" as="geometry" />
        </mxCell>
        <mxCell id="HwPFHqp_LilTzUDiQz0i-109" value="has" style="rhombus;whiteSpace=wrap;html=1;fontSize=16;" parent="1" vertex="1">
          <mxGeometry x="3835" y="2105" width="80" height="80" as="geometry" />
        </mxCell>
        <mxCell id="HwPFHqp_LilTzUDiQz0i-110" value="" style="html=1;jettySize=18;whiteSpace=wrap;fontSize=13;strokeColor=#3a414a;strokeOpacity=100;strokeWidth=0.8;rounded=1;arcSize=12;edgeStyle=orthogonalEdgeStyle;startArrow=none;endArrow=block;endFill=1;lucidId=xm4Z25uVGyIg;" parent="1" edge="1">
          <mxGeometry width="100" height="100" relative="1" as="geometry">
            <Array as="points" />
            <mxPoint x="4110" y="2144" as="sourcePoint" />
            <mxPoint x="4110" y="2144" as="targetPoint" />
          </mxGeometry>
        </mxCell>
        <mxCell id="HwPFHqp_LilTzUDiQz0i-111" value="" style="html=1;jettySize=18;whiteSpace=wrap;fontSize=13;strokeColor=#3a414a;strokeOpacity=100;strokeWidth=0.8;rounded=1;arcSize=12;edgeStyle=orthogonalEdgeStyle;startArrow=none;endArrow=block;endFill=1;lucidId=xm4Z25uVGyIg;" parent="1" edge="1">
          <mxGeometry width="100" height="100" relative="1" as="geometry">
            <Array as="points" />
            <mxPoint x="4120" y="2154" as="sourcePoint" />
            <mxPoint x="4120" y="2154" as="targetPoint" />
          </mxGeometry>
        </mxCell>
        <mxCell id="HwPFHqp_LilTzUDiQz0i-112" value="post" style="whiteSpace=wrap;html=1;fontSize=16;" parent="1" vertex="1">
          <mxGeometry x="4015" y="2115" width="120" height="60" as="geometry" />
        </mxCell>
        <mxCell id="HwPFHqp_LilTzUDiQz0i-113" value="" style="edgeStyle=none;curved=1;rounded=0;orthogonalLoop=1;jettySize=auto;html=1;fontSize=12;startSize=8;endSize=8;endArrow=none;endFill=0;" parent="1" source="HwPFHqp_LilTzUDiQz0i-114" target="HwPFHqp_LilTzUDiQz0i-112" edge="1">
          <mxGeometry relative="1" as="geometry" />
        </mxCell>
        <mxCell id="HwPFHqp_LilTzUDiQz0i-114" value="id" style="html=1;overflow=block;blockSpacing=1;whiteSpace=wrap;rounded=1;arcSize=50;fontSize=16.7;fontColor=#3a414a;spacing=3.8;strokeColor=#3a414a;strokeOpacity=100;strokeWidth=0.8;lucidId=Hm4Z8wLVr.C2;" parent="1" vertex="1">
          <mxGeometry x="4030" y="2017" width="90" height="56" as="geometry" />
        </mxCell>
        <mxCell id="HwPFHqp_LilTzUDiQz0i-115" value="" style="edgeStyle=none;curved=1;rounded=0;orthogonalLoop=1;jettySize=auto;html=1;fontSize=12;startSize=8;endSize=8;endArrow=none;endFill=0;" parent="1" source="HwPFHqp_LilTzUDiQz0i-116" target="HwPFHqp_LilTzUDiQz0i-112" edge="1">
          <mxGeometry relative="1" as="geometry" />
        </mxCell>
        <mxCell id="HwPFHqp_LilTzUDiQz0i-116" value="title" style="html=1;overflow=block;blockSpacing=1;whiteSpace=wrap;rounded=1;arcSize=50;fontSize=16.7;fontColor=#3a414a;spacing=3.8;strokeColor=#3a414a;strokeOpacity=100;strokeWidth=0.8;lucidId=Hm4Z8wLVr.C2;" parent="1" vertex="1">
          <mxGeometry x="4190" y="2117" width="90" height="56" as="geometry" />
        </mxCell>
        <mxCell id="HwPFHqp_LilTzUDiQz0i-117" value="" style="edgeStyle=none;curved=1;rounded=0;orthogonalLoop=1;jettySize=auto;html=1;fontSize=12;startSize=8;endSize=8;endArrow=none;endFill=0;entryX=0.998;entryY=0.432;entryDx=0;entryDy=0;entryPerimeter=0;strokeWidth=2;" parent="1" source="HwPFHqp_LilTzUDiQz0i-118" target="HwPFHqp_LilTzUDiQz0i-121" edge="1">
          <mxGeometry relative="1" as="geometry" />
        </mxCell>
        <mxCell id="LdOhWxeoxdTWi-fPVQRp-26" style="edgeStyle=orthogonalEdgeStyle;rounded=0;orthogonalLoop=1;jettySize=auto;html=1;fontSize=12;startSize=8;endSize=8;endArrow=none;endFill=0;entryX=0;entryY=0.5;entryDx=0;entryDy=0;strokeWidth=2;" parent="1" source="HwPFHqp_LilTzUDiQz0i-118" target="HwPFHqp_LilTzUDiQz0i-18" edge="1">
          <mxGeometry relative="1" as="geometry">
            <mxPoint x="2600" y="2210" as="targetPoint" />
            <Array as="points">
              <mxPoint x="2520" y="2214" />
              <mxPoint x="2520" y="2173" />
            </Array>
          </mxGeometry>
        </mxCell>
        <mxCell id="HwPFHqp_LilTzUDiQz0i-118" value="has" style="rhombus;whiteSpace=wrap;html=1;fontSize=16;" parent="1" vertex="1">
          <mxGeometry x="2254" y="2174" width="80" height="80" as="geometry" />
        </mxCell>
        <mxCell id="HwPFHqp_LilTzUDiQz0i-121" value="institute financial Records" style="rounded=0;whiteSpace=wrap;html=1;fontSize=16;" parent="1" vertex="1">
          <mxGeometry x="1940" y="2189" width="120" height="60" as="geometry" />
        </mxCell>
        <mxCell id="HwPFHqp_LilTzUDiQz0i-122" value="1" style="text;html=1;strokeColor=none;fillColor=none;align=center;verticalAlign=middle;whiteSpace=wrap;rounded=0;fontSize=16;" parent="1" vertex="1">
          <mxGeometry x="2194" y="2183" width="60" height="30" as="geometry" />
        </mxCell>
        <mxCell id="HwPFHqp_LilTzUDiQz0i-123" value="n" style="text;html=1;strokeColor=none;fillColor=none;align=center;verticalAlign=middle;whiteSpace=wrap;rounded=0;fontSize=16;" parent="1" vertex="1">
          <mxGeometry x="2334" y="2183" width="60" height="30" as="geometry" />
        </mxCell>
        <mxCell id="LdOhWxeoxdTWi-fPVQRp-3" style="edgeStyle=orthogonalEdgeStyle;rounded=0;orthogonalLoop=1;jettySize=auto;html=1;entryX=0;entryY=0.25;entryDx=0;entryDy=0;fontSize=12;startSize=8;endSize=8;endArrow=none;endFill=0;" parent="1" source="HwPFHqp_LilTzUDiQz0i-125" target="HwPFHqp_LilTzUDiQz0i-121" edge="1">
          <mxGeometry relative="1" as="geometry">
            <Array as="points">
              <mxPoint x="1785" y="2204" />
            </Array>
          </mxGeometry>
        </mxCell>
        <mxCell id="HwPFHqp_LilTzUDiQz0i-125" value="transaction date" style="html=1;overflow=block;blockSpacing=1;whiteSpace=wrap;rounded=1;arcSize=50;fontSize=16.7;fontColor=#3a414a;spacing=3.8;strokeColor=#3a414a;strokeOpacity=100;strokeWidth=0.8;lucidId=Hm4Z8wLVr.C2;" parent="1" vertex="1">
          <mxGeometry x="1740" y="2260" width="90" height="56" as="geometry" />
        </mxCell>
        <mxCell id="HwPFHqp_LilTzUDiQz0i-126" style="edgeStyle=none;curved=1;rounded=0;orthogonalLoop=1;jettySize=auto;html=1;exitX=0.5;exitY=0;exitDx=0;exitDy=0;entryX=0.5;entryY=1;entryDx=0;entryDy=0;fontSize=12;startSize=8;endSize=8;endArrow=none;endFill=0;" parent="1" source="HwPFHqp_LilTzUDiQz0i-127" target="HwPFHqp_LilTzUDiQz0i-121" edge="1">
          <mxGeometry relative="1" as="geometry" />
        </mxCell>
        <mxCell id="HwPFHqp_LilTzUDiQz0i-127" value="amount" style="html=1;overflow=block;blockSpacing=1;whiteSpace=wrap;rounded=1;arcSize=50;fontSize=16.7;fontColor=#3a414a;spacing=3.8;strokeColor=#3a414a;strokeOpacity=100;strokeWidth=0.8;lucidId=Hm4Z8wLVr.C2;" parent="1" vertex="1">
          <mxGeometry x="1955" y="2304" width="90" height="56" as="geometry" />
        </mxCell>
        <mxCell id="FHESCMoN95WrOvaPs308-56" style="edgeStyle=orthogonalEdgeStyle;rounded=0;orthogonalLoop=1;jettySize=auto;html=1;exitX=0.5;exitY=0;exitDx=0;exitDy=0;entryX=0;entryY=0.75;entryDx=0;entryDy=0;endArrow=none;endFill=0;" parent="1" source="HwPFHqp_LilTzUDiQz0i-129" target="HwPFHqp_LilTzUDiQz0i-121" edge="1">
          <mxGeometry relative="1" as="geometry" />
        </mxCell>
        <mxCell id="HwPFHqp_LilTzUDiQz0i-129" value="transaction type" style="html=1;overflow=block;blockSpacing=1;whiteSpace=wrap;rounded=1;arcSize=50;fontSize=16.7;fontColor=#3a414a;spacing=3.8;strokeColor=#3a414a;strokeOpacity=100;strokeWidth=0.8;lucidId=Hm4Z8wLVr.C2;" parent="1" vertex="1">
          <mxGeometry x="1840" y="2260" width="90" height="56" as="geometry" />
        </mxCell>
        <mxCell id="HwPFHqp_LilTzUDiQz0i-130" value="department of institute" style="html=1;overflow=block;blockSpacing=1;whiteSpace=wrap;fontSize=16.7;fontColor=#3a414a;spacing=9;strokeColor=#3a414a;strokeOpacity=100;rounded=1;absoluteArcSize=1;arcSize=9;strokeWidth=0.8;lucidId=Kh4Z5rDDQchC;" parent="1" vertex="1">
          <mxGeometry x="3197" y="1420" width="120" height="90" as="geometry" />
        </mxCell>
        <mxCell id="HwPFHqp_LilTzUDiQz0i-131" value="n" style="text;html=1;strokeColor=none;fillColor=none;align=center;verticalAlign=middle;whiteSpace=wrap;rounded=0;fontSize=16;" parent="1" vertex="1">
          <mxGeometry x="3242" y="1759" width="60" height="30" as="geometry" />
        </mxCell>
        <mxCell id="HwPFHqp_LilTzUDiQz0i-133" value="" style="edgeStyle=none;curved=1;rounded=0;orthogonalLoop=1;jettySize=auto;html=1;fontSize=12;startSize=8;endSize=8;endArrow=none;endFill=0;" parent="1" source="HwPFHqp_LilTzUDiQz0i-134" target="HwPFHqp_LilTzUDiQz0i-130" edge="1">
          <mxGeometry relative="1" as="geometry" />
        </mxCell>
        <mxCell id="HwPFHqp_LilTzUDiQz0i-134" value="id" style="html=1;overflow=block;blockSpacing=1;whiteSpace=wrap;rounded=1;arcSize=50;fontSize=16.7;fontColor=#3a414a;spacing=3.8;strokeColor=#3a414a;strokeOpacity=100;strokeWidth=0.8;lucidId=Hm4Z8wLVr.C2;" parent="1" vertex="1">
          <mxGeometry x="3212" y="1340" width="90" height="56" as="geometry" />
        </mxCell>
        <mxCell id="HwPFHqp_LilTzUDiQz0i-135" value="" style="edgeStyle=none;curved=1;rounded=0;orthogonalLoop=1;jettySize=auto;html=1;fontSize=12;startSize=8;endSize=8;endArrow=none;endFill=0;" parent="1" source="HwPFHqp_LilTzUDiQz0i-136" target="HwPFHqp_LilTzUDiQz0i-130" edge="1">
          <mxGeometry relative="1" as="geometry" />
        </mxCell>
        <mxCell id="HwPFHqp_LilTzUDiQz0i-136" value="adress" style="html=1;overflow=block;blockSpacing=1;whiteSpace=wrap;rounded=1;arcSize=50;fontSize=16.7;fontColor=#3a414a;spacing=3.8;strokeColor=#3a414a;strokeOpacity=100;strokeWidth=0.8;lucidId=Hm4Z8wLVr.C2;" parent="1" vertex="1">
          <mxGeometry x="3362" y="1437" width="90" height="56" as="geometry" />
        </mxCell>
        <mxCell id="HwPFHqp_LilTzUDiQz0i-138" value="has" style="rhombus;whiteSpace=wrap;html=1;fontSize=16;" parent="1" vertex="1">
          <mxGeometry x="3217" y="1790" width="80" height="80" as="geometry" />
        </mxCell>
        <mxCell id="HwPFHqp_LilTzUDiQz0i-139" value="" style="edgeStyle=none;curved=1;rounded=0;orthogonalLoop=1;jettySize=auto;html=1;fontSize=12;startSize=8;endSize=8;endArrow=none;endFill=0;strokeWidth=2;" parent="1" source="HwPFHqp_LilTzUDiQz0i-141" target="HwPFHqp_LilTzUDiQz0i-142" edge="1">
          <mxGeometry relative="1" as="geometry" />
        </mxCell>
        <mxCell id="FHESCMoN95WrOvaPs308-26" style="edgeStyle=orthogonalEdgeStyle;rounded=0;orthogonalLoop=1;jettySize=auto;html=1;exitX=1;exitY=0.5;exitDx=0;exitDy=0;entryX=0;entryY=0.5;entryDx=0;entryDy=0;endArrow=none;endFill=0;strokeWidth=2;" parent="1" source="HwPFHqp_LilTzUDiQz0i-141" target="HwPFHqp_LilTzUDiQz0i-186" edge="1">
          <mxGeometry relative="1" as="geometry" />
        </mxCell>
        <mxCell id="HwPFHqp_LilTzUDiQz0i-141" value="&lt;font style=&quot;font-size: 12px;&quot;&gt;financial Source research Activity&lt;/font&gt;" style="rhombus;whiteSpace=wrap;html=1;fontSize=16.7;strokeColor=#3a414a;fontColor=#3a414a;spacing=9;rounded=1;arcSize=9;strokeWidth=0.8;" parent="1" vertex="1">
          <mxGeometry x="2970" y="1290" width="80" height="80" as="geometry" />
        </mxCell>
        <mxCell id="FHESCMoN95WrOvaPs308-55" style="edgeStyle=orthogonalEdgeStyle;rounded=0;orthogonalLoop=1;jettySize=auto;html=1;exitX=0.5;exitY=0;exitDx=0;exitDy=0;entryX=0.5;entryY=1;entryDx=0;entryDy=0;endArrow=none;endFill=0;strokeWidth=2;" parent="1" source="HwPFHqp_LilTzUDiQz0i-142" target="HwPFHqp_LilTzUDiQz0i-180" edge="1">
          <mxGeometry relative="1" as="geometry" />
        </mxCell>
        <mxCell id="HwPFHqp_LilTzUDiQz0i-142" value="financial Source" style="whiteSpace=wrap;html=1;fontSize=16.7;strokeColor=#3a414a;fontColor=#3a414a;spacing=9;rounded=1;arcSize=9;strokeWidth=0.8;" parent="1" vertex="1">
          <mxGeometry x="2950" y="1100" width="120" height="60" as="geometry" />
        </mxCell>
        <mxCell id="HwPFHqp_LilTzUDiQz0i-143" value="" style="edgeStyle=none;curved=1;rounded=0;orthogonalLoop=1;jettySize=auto;html=1;fontSize=12;startSize=8;endSize=8;endArrow=none;endFill=0;" parent="1" source="HwPFHqp_LilTzUDiQz0i-144" target="HwPFHqp_LilTzUDiQz0i-142" edge="1">
          <mxGeometry relative="1" as="geometry" />
        </mxCell>
        <mxCell id="HwPFHqp_LilTzUDiQz0i-144" value="&lt;u&gt;id&lt;/u&gt;" style="html=1;overflow=block;blockSpacing=1;whiteSpace=wrap;rounded=1;arcSize=50;fontSize=16.7;fontColor=#3a414a;spacing=3.8;strokeColor=#3a414a;strokeOpacity=100;strokeWidth=0.8;lucidId=Hm4Z8wLVr.C2;" parent="1" vertex="1">
          <mxGeometry x="2810" y="1104" width="90" height="56" as="geometry" />
        </mxCell>
        <mxCell id="HwPFHqp_LilTzUDiQz0i-145" value="" style="edgeStyle=none;curved=1;rounded=0;orthogonalLoop=1;jettySize=auto;html=1;fontSize=12;startSize=8;endSize=8;endArrow=none;endFill=0;" parent="1" source="HwPFHqp_LilTzUDiQz0i-146" target="HwPFHqp_LilTzUDiQz0i-142" edge="1">
          <mxGeometry relative="1" as="geometry" />
        </mxCell>
        <mxCell id="HwPFHqp_LilTzUDiQz0i-146" value="type id " style="html=1;overflow=block;blockSpacing=1;whiteSpace=wrap;rounded=1;arcSize=50;fontSize=16.7;fontColor=#3a414a;spacing=3.8;strokeColor=#3a414a;strokeOpacity=100;strokeWidth=0.8;lucidId=Hm4Z8wLVr.C2;" parent="1" vertex="1">
          <mxGeometry x="3112" y="1100" width="90" height="56" as="geometry" />
        </mxCell>
        <mxCell id="HwPFHqp_LilTzUDiQz0i-147" value="m" style="text;html=1;strokeColor=none;fillColor=none;align=center;verticalAlign=middle;whiteSpace=wrap;rounded=0;fontSize=16;" parent="1" vertex="1">
          <mxGeometry x="2965" y="1238" width="60" height="30" as="geometry" />
        </mxCell>
        <mxCell id="HwPFHqp_LilTzUDiQz0i-148" value="n" style="text;html=1;strokeColor=none;fillColor=none;align=center;verticalAlign=middle;whiteSpace=wrap;rounded=0;fontSize=16;" parent="1" vertex="1">
          <mxGeometry x="2910" y="1300" width="60" height="30" as="geometry" />
        </mxCell>
        <mxCell id="FHESCMoN95WrOvaPs308-30" style="edgeStyle=orthogonalEdgeStyle;rounded=0;orthogonalLoop=1;jettySize=auto;html=1;exitX=0;exitY=0.5;exitDx=0;exitDy=0;entryX=1;entryY=0.5;entryDx=0;entryDy=0;endArrow=none;endFill=0;strokeWidth=2;" parent="1" source="HwPFHqp_LilTzUDiQz0i-150" target="HwPFHqp_LilTzUDiQz0i-151" edge="1">
          <mxGeometry relative="1" as="geometry" />
        </mxCell>
        <mxCell id="HwPFHqp_LilTzUDiQz0i-150" value="&lt;font style=&quot;font-size: 11px;&quot;&gt;supporter research Activity&lt;/font&gt;" style="rhombus;whiteSpace=wrap;html=1;fontSize=16;" parent="1" vertex="1">
          <mxGeometry x="2050" y="1160" width="110" height="105" as="geometry" />
        </mxCell>
        <mxCell id="HwPFHqp_LilTzUDiQz0i-151" value="supporter" style="rounded=0;whiteSpace=wrap;html=1;fontSize=16;" parent="1" vertex="1">
          <mxGeometry x="1620" y="1010" width="120" height="60" as="geometry" />
        </mxCell>
        <mxCell id="HwPFHqp_LilTzUDiQz0i-152" value="" style="edgeStyle=none;curved=1;rounded=0;orthogonalLoop=1;jettySize=auto;html=1;fontSize=12;startSize=8;endSize=8;endArrow=none;endFill=0;" parent="1" source="HwPFHqp_LilTzUDiQz0i-153" target="HwPFHqp_LilTzUDiQz0i-151" edge="1">
          <mxGeometry relative="1" as="geometry" />
        </mxCell>
        <mxCell id="HwPFHqp_LilTzUDiQz0i-153" value="&lt;u&gt;id&lt;/u&gt;" style="html=1;overflow=block;blockSpacing=1;whiteSpace=wrap;rounded=1;arcSize=50;fontSize=16.7;fontColor=#3a414a;spacing=3.8;strokeColor=#3a414a;strokeOpacity=100;strokeWidth=0.8;lucidId=gp4ZOOJwNQIq;" parent="1" vertex="1">
          <mxGeometry x="1620" y="910" width="120" height="60" as="geometry" />
        </mxCell>
        <mxCell id="HwPFHqp_LilTzUDiQz0i-154" value="" style="edgeStyle=none;curved=1;rounded=0;orthogonalLoop=1;jettySize=auto;html=1;fontSize=12;startSize=8;endSize=8;endArrow=none;endFill=0;" parent="1" source="HwPFHqp_LilTzUDiQz0i-155" target="HwPFHqp_LilTzUDiQz0i-151" edge="1">
          <mxGeometry relative="1" as="geometry" />
        </mxCell>
        <mxCell id="HwPFHqp_LilTzUDiQz0i-155" value="name" style="html=1;overflow=block;blockSpacing=1;whiteSpace=wrap;rounded=1;arcSize=50;fontSize=16.7;fontColor=#3a414a;spacing=3.8;strokeColor=#3a414a;strokeOpacity=100;strokeWidth=0.8;lucidId=gp4ZOOJwNQIq;" parent="1" vertex="1">
          <mxGeometry x="1455" y="1010" width="120" height="60" as="geometry" />
        </mxCell>
        <mxCell id="HwPFHqp_LilTzUDiQz0i-156" value="n" style="text;html=1;strokeColor=none;fillColor=none;align=center;verticalAlign=middle;whiteSpace=wrap;rounded=0;fontSize=16;" parent="1" vertex="1">
          <mxGeometry x="1990" y="1180" width="60" height="30" as="geometry" />
        </mxCell>
        <mxCell id="HwPFHqp_LilTzUDiQz0i-157" value="m" style="text;html=1;strokeColor=none;fillColor=none;align=center;verticalAlign=middle;whiteSpace=wrap;rounded=0;fontSize=16;" parent="1" vertex="1">
          <mxGeometry x="2160" y="1180" width="60" height="30" as="geometry" />
        </mxCell>
        <mxCell id="FHESCMoN95WrOvaPs308-43" style="edgeStyle=orthogonalEdgeStyle;rounded=0;orthogonalLoop=1;jettySize=auto;html=1;exitX=0.5;exitY=1;exitDx=0;exitDy=0;entryX=0.837;entryY=0.008;entryDx=0;entryDy=0;entryPerimeter=0;endArrow=none;endFill=0;" parent="1" source="HwPFHqp_LilTzUDiQz0i-159" target="HwPFHqp_LilTzUDiQz0i-36" edge="1">
          <mxGeometry relative="1" as="geometry" />
        </mxCell>
        <mxCell id="HwPFHqp_LilTzUDiQz0i-159" value="first name " style="html=1;overflow=block;blockSpacing=1;whiteSpace=wrap;rounded=1;arcSize=50;fontSize=16.7;fontColor=#3a414a;spacing=3.8;strokeColor=#3a414a;strokeOpacity=100;strokeWidth=0.8;lucidId=Hv4ZFkdMAi0.;" parent="1" vertex="1">
          <mxGeometry x="1740" y="1325" width="120" height="60" as="geometry" />
        </mxCell>
        <mxCell id="FHESCMoN95WrOvaPs308-41" style="edgeStyle=orthogonalEdgeStyle;rounded=0;orthogonalLoop=1;jettySize=auto;html=1;exitX=0.5;exitY=1;exitDx=0;exitDy=0;entryX=0;entryY=0.25;entryDx=0;entryDy=0;endArrow=none;endFill=0;" parent="1" source="HwPFHqp_LilTzUDiQz0i-161" target="HwPFHqp_LilTzUDiQz0i-36" edge="1">
          <mxGeometry relative="1" as="geometry" />
        </mxCell>
        <mxCell id="HwPFHqp_LilTzUDiQz0i-161" value="last name" style="html=1;overflow=block;blockSpacing=1;whiteSpace=wrap;rounded=1;arcSize=50;fontSize=16.7;fontColor=#3a414a;spacing=3.8;strokeColor=#3a414a;strokeOpacity=100;strokeWidth=0.8;lucidId=Hv4ZFkdMAi0.;" parent="1" vertex="1">
          <mxGeometry x="1430" y="1320" width="120" height="60" as="geometry" />
        </mxCell>
        <mxCell id="FHESCMoN95WrOvaPs308-40" style="edgeStyle=orthogonalEdgeStyle;rounded=0;orthogonalLoop=1;jettySize=auto;html=1;exitX=1;exitY=0.5;exitDx=0;exitDy=0;entryX=0.25;entryY=1;entryDx=0;entryDy=0;endArrow=none;endFill=0;" parent="1" source="HwPFHqp_LilTzUDiQz0i-163" target="HwPFHqp_LilTzUDiQz0i-36" edge="1">
          <mxGeometry relative="1" as="geometry" />
        </mxCell>
        <mxCell id="HwPFHqp_LilTzUDiQz0i-163" value="birthdate" style="html=1;overflow=block;blockSpacing=1;whiteSpace=wrap;rounded=1;arcSize=50;fontSize=16.7;fontColor=#3a414a;spacing=3.8;strokeColor=#3a414a;strokeOpacity=100;strokeWidth=0.8;lucidId=Hv4ZFkdMAi0.;" parent="1" vertex="1">
          <mxGeometry x="1440" y="1520" width="120" height="60" as="geometry" />
        </mxCell>
        <mxCell id="FHESCMoN95WrOvaPs308-32" style="edgeStyle=orthogonalEdgeStyle;rounded=0;orthogonalLoop=1;jettySize=auto;html=1;exitX=0;exitY=0;exitDx=0;exitDy=0;entryX=1;entryY=0.5;entryDx=0;entryDy=0;endArrow=none;endFill=0;strokeWidth=2;" parent="1" source="HwPFHqp_LilTzUDiQz0i-164" target="HwPFHqp_LilTzUDiQz0i-36" edge="1">
          <mxGeometry relative="1" as="geometry">
            <Array as="points">
              <mxPoint x="1980" y="1475" />
            </Array>
          </mxGeometry>
        </mxCell>
        <mxCell id="HwPFHqp_LilTzUDiQz0i-164" value="agrement" style="rhombus;whiteSpace=wrap;html=1;fontSize=16;" parent="1" vertex="1">
          <mxGeometry x="1960" y="1759" width="80" height="80" as="geometry" />
        </mxCell>
        <mxCell id="HwPFHqp_LilTzUDiQz0i-165" value="" style="edgeStyle=none;curved=1;rounded=0;orthogonalLoop=1;jettySize=auto;html=1;fontSize=12;startSize=8;endSize=8;endArrow=none;endFill=0;" parent="1" source="HwPFHqp_LilTzUDiQz0i-166" target="HwPFHqp_LilTzUDiQz0i-164" edge="1">
          <mxGeometry relative="1" as="geometry" />
        </mxCell>
        <mxCell id="HwPFHqp_LilTzUDiQz0i-166" value="research Equipment Used" style="html=1;overflow=block;blockSpacing=1;whiteSpace=wrap;rounded=1;arcSize=50;fontSize=16.7;fontColor=#3a414a;spacing=3.8;strokeColor=#3a414a;strokeOpacity=100;strokeWidth=0.8;lucidId=UP4Z74KVq56b;" parent="1" vertex="1">
          <mxGeometry x="1940" y="1870" width="120" height="60" as="geometry" />
        </mxCell>
        <mxCell id="HwPFHqp_LilTzUDiQz0i-167" value="" style="edgeStyle=none;curved=1;rounded=0;orthogonalLoop=1;jettySize=auto;html=1;fontSize=12;startSize=8;endSize=8;endArrow=none;endFill=0;" parent="1" source="HwPFHqp_LilTzUDiQz0i-168" target="HwPFHqp_LilTzUDiQz0i-164" edge="1">
          <mxGeometry relative="1" as="geometry" />
        </mxCell>
        <mxCell id="HwPFHqp_LilTzUDiQz0i-168" value="case payment" style="html=1;overflow=block;blockSpacing=1;whiteSpace=wrap;rounded=1;arcSize=50;fontSize=16.7;fontColor=#3a414a;spacing=3.8;strokeColor=#3a414a;strokeOpacity=100;strokeWidth=0.8;lucidId=UP4Z74KVq56b;" parent="1" vertex="1">
          <mxGeometry x="1790" y="1769" width="120" height="60" as="geometry" />
        </mxCell>
        <mxCell id="FHESCMoN95WrOvaPs308-36" style="edgeStyle=orthogonalEdgeStyle;rounded=0;orthogonalLoop=1;jettySize=auto;html=1;exitX=0.25;exitY=0;exitDx=0;exitDy=0;entryX=1;entryY=1;entryDx=0;entryDy=0;endArrow=none;endFill=0;" parent="1" source="HwPFHqp_LilTzUDiQz0i-170" target="HwPFHqp_LilTzUDiQz0i-164" edge="1">
          <mxGeometry relative="1" as="geometry">
            <Array as="points">
              <mxPoint x="2120" y="1860" />
              <mxPoint x="2020" y="1860" />
            </Array>
          </mxGeometry>
        </mxCell>
        <mxCell id="HwPFHqp_LilTzUDiQz0i-170" value="agreement start Time" style="html=1;overflow=block;blockSpacing=1;whiteSpace=wrap;rounded=1;arcSize=50;fontSize=16.7;fontColor=#3a414a;spacing=3.8;strokeColor=#3a414a;strokeOpacity=100;strokeWidth=0.8;lucidId=UP4Z74KVq56b;" parent="1" vertex="1">
          <mxGeometry x="2090" y="1870" width="120" height="60" as="geometry" />
        </mxCell>
        <mxCell id="FHESCMoN95WrOvaPs308-34" style="edgeStyle=orthogonalEdgeStyle;rounded=0;orthogonalLoop=1;jettySize=auto;html=1;exitX=0.75;exitY=0;exitDx=0;exitDy=0;entryX=0;entryY=1;entryDx=0;entryDy=0;endArrow=none;endFill=0;" parent="1" source="HwPFHqp_LilTzUDiQz0i-172" target="HwPFHqp_LilTzUDiQz0i-164" edge="1">
          <mxGeometry relative="1" as="geometry">
            <Array as="points">
              <mxPoint x="1880" y="1859" />
              <mxPoint x="1980" y="1859" />
            </Array>
          </mxGeometry>
        </mxCell>
        <mxCell id="HwPFHqp_LilTzUDiQz0i-172" value="agreement end Time" style="html=1;overflow=block;blockSpacing=1;whiteSpace=wrap;rounded=1;arcSize=50;fontSize=16.7;fontColor=#3a414a;spacing=3.8;strokeColor=#3a414a;strokeOpacity=100;strokeWidth=0.8;lucidId=UP4Z74KVq56b;" parent="1" vertex="1">
          <mxGeometry x="1790" y="1870" width="120" height="60" as="geometry" />
        </mxCell>
        <mxCell id="FHESCMoN95WrOvaPs308-33" style="edgeStyle=orthogonalEdgeStyle;rounded=0;orthogonalLoop=1;jettySize=auto;html=1;exitX=1;exitY=0.5;exitDx=0;exitDy=0;entryX=0.132;entryY=0.356;entryDx=0;entryDy=0;entryPerimeter=0;endArrow=none;endFill=0;" parent="1" source="HwPFHqp_LilTzUDiQz0i-174" target="HwPFHqp_LilTzUDiQz0i-164" edge="1">
          <mxGeometry relative="1" as="geometry" />
        </mxCell>
        <mxCell id="HwPFHqp_LilTzUDiQz0i-174" value="act" style="html=1;overflow=block;blockSpacing=1;whiteSpace=wrap;rounded=1;arcSize=50;fontSize=16.7;fontColor=#3a414a;spacing=3.8;strokeColor=#3a414a;strokeOpacity=100;strokeWidth=0.8;lucidId=UP4Z74KVq56b;" parent="1" vertex="1">
          <mxGeometry x="1790" y="1681.5" width="120" height="60" as="geometry" />
        </mxCell>
        <mxCell id="HwPFHqp_LilTzUDiQz0i-175" value="n" style="text;html=1;strokeColor=none;fillColor=none;align=center;verticalAlign=middle;whiteSpace=wrap;rounded=0;fontSize=16;" parent="1" vertex="1">
          <mxGeometry x="1920" y="1560" width="60" height="30" as="geometry" />
        </mxCell>
        <mxCell id="HwPFHqp_LilTzUDiQz0i-176" value="m" style="text;html=1;strokeColor=none;fillColor=none;align=center;verticalAlign=middle;whiteSpace=wrap;rounded=0;fontSize=16;" parent="1" vertex="1">
          <mxGeometry x="2000" y="1560" width="60" height="30" as="geometry" />
        </mxCell>
        <mxCell id="HwPFHqp_LilTzUDiQz0i-177" value="o" style="text;html=1;strokeColor=none;fillColor=none;align=center;verticalAlign=middle;whiteSpace=wrap;rounded=0;fontSize=16;" parent="1" vertex="1">
          <mxGeometry x="2070" y="1769" width="60" height="30" as="geometry" />
        </mxCell>
        <mxCell id="HwPFHqp_LilTzUDiQz0i-179" value="" style="edgeStyle=none;curved=1;rounded=0;orthogonalLoop=1;jettySize=auto;html=1;fontSize=12;startSize=8;endSize=8;endArrow=none;endFill=0;strokeWidth=2;" parent="1" source="HwPFHqp_LilTzUDiQz0i-180" target="HwPFHqp_LilTzUDiQz0i-181" edge="1">
          <mxGeometry relative="1" as="geometry" />
        </mxCell>
        <mxCell id="HwPFHqp_LilTzUDiQz0i-180" value="has" style="rhombus;whiteSpace=wrap;html=1;fontSize=16;" parent="1" vertex="1">
          <mxGeometry x="2970" y="960" width="80" height="80" as="geometry" />
        </mxCell>
        <mxCell id="HwPFHqp_LilTzUDiQz0i-181" value="financial Source Type" style="whiteSpace=wrap;html=1;fontSize=16;" parent="1" vertex="1">
          <mxGeometry x="2950" y="830" width="120" height="60" as="geometry" />
        </mxCell>
        <mxCell id="HwPFHqp_LilTzUDiQz0i-182" value="" style="edgeStyle=none;curved=1;rounded=0;orthogonalLoop=1;jettySize=auto;html=1;fontSize=12;startSize=8;endSize=8;endArrow=none;endFill=0;" parent="1" source="HwPFHqp_LilTzUDiQz0i-183" target="HwPFHqp_LilTzUDiQz0i-181" edge="1">
          <mxGeometry relative="1" as="geometry" />
        </mxCell>
        <mxCell id="HwPFHqp_LilTzUDiQz0i-183" value="&lt;u&gt;id&lt;/u&gt;" style="html=1;overflow=block;blockSpacing=1;whiteSpace=wrap;rounded=1;arcSize=50;fontSize=16.7;fontColor=#3a414a;spacing=3.8;strokeColor=#3a414a;strokeOpacity=100;strokeWidth=0.8;lucidId=Hm4Z8wLVr.C2;" parent="1" vertex="1">
          <mxGeometry x="2810" y="832" width="90" height="56" as="geometry" />
        </mxCell>
        <mxCell id="HwPFHqp_LilTzUDiQz0i-184" value="" style="edgeStyle=none;curved=1;rounded=0;orthogonalLoop=1;jettySize=auto;html=1;fontSize=12;startSize=8;endSize=8;endArrow=none;endFill=0;" parent="1" source="HwPFHqp_LilTzUDiQz0i-185" target="HwPFHqp_LilTzUDiQz0i-181" edge="1">
          <mxGeometry relative="1" as="geometry" />
        </mxCell>
        <mxCell id="HwPFHqp_LilTzUDiQz0i-185" value="type" style="html=1;overflow=block;blockSpacing=1;whiteSpace=wrap;rounded=1;arcSize=50;fontSize=16.7;fontColor=#3a414a;spacing=3.8;strokeColor=#3a414a;strokeOpacity=100;strokeWidth=0.8;lucidId=Hm4Z8wLVr.C2;" parent="1" vertex="1">
          <mxGeometry x="3120" y="834" width="90" height="56" as="geometry" />
        </mxCell>
        <mxCell id="HwPFHqp_LilTzUDiQz0i-186" value="financial Budget Type" style="whiteSpace=wrap;html=1;fontSize=16;rounded=0;" parent="1" vertex="1">
          <mxGeometry x="3380" y="1300" width="120" height="60" as="geometry" />
        </mxCell>
        <mxCell id="HwPFHqp_LilTzUDiQz0i-187" value="" style="edgeStyle=none;curved=1;rounded=0;orthogonalLoop=1;jettySize=auto;html=1;fontSize=12;startSize=8;endSize=8;endArrow=none;endFill=0;" parent="1" source="HwPFHqp_LilTzUDiQz0i-188" target="HwPFHqp_LilTzUDiQz0i-186" edge="1">
          <mxGeometry relative="1" as="geometry" />
        </mxCell>
        <mxCell id="HwPFHqp_LilTzUDiQz0i-188" value="type" style="html=1;overflow=block;blockSpacing=1;whiteSpace=wrap;rounded=1;arcSize=50;fontSize=16.7;fontColor=#3a414a;spacing=3.8;strokeColor=#3a414a;strokeOpacity=100;strokeWidth=0.8;lucidId=Hm4Z8wLVr.C2;" parent="1" vertex="1">
          <mxGeometry x="3395" y="1208" width="90" height="56" as="geometry" />
        </mxCell>
        <mxCell id="HwPFHqp_LilTzUDiQz0i-189" value="" style="edgeStyle=none;curved=1;rounded=0;orthogonalLoop=1;jettySize=auto;html=1;fontSize=12;startSize=8;endSize=8;endArrow=none;endFill=0;" parent="1" source="HwPFHqp_LilTzUDiQz0i-190" target="HwPFHqp_LilTzUDiQz0i-186" edge="1">
          <mxGeometry relative="1" as="geometry" />
        </mxCell>
        <mxCell id="HwPFHqp_LilTzUDiQz0i-190" value="id" style="html=1;overflow=block;blockSpacing=1;whiteSpace=wrap;rounded=1;arcSize=50;fontSize=16.7;fontColor=#3a414a;spacing=3.8;strokeColor=#3a414a;strokeOpacity=100;strokeWidth=0.8;lucidId=Hm4Z8wLVr.C2;" parent="1" vertex="1">
          <mxGeometry x="3553" y="1304" width="90" height="56" as="geometry" />
        </mxCell>
        <mxCell id="FHESCMoN95WrOvaPs308-44" style="edgeStyle=orthogonalEdgeStyle;rounded=0;orthogonalLoop=1;jettySize=auto;html=1;exitX=1;exitY=0.5;exitDx=0;exitDy=0;endArrow=none;endFill=0;targetPerimeterSpacing=0;shadow=0;strokeWidth=2;" parent="1" source="HwPFHqp_LilTzUDiQz0i-191" target="HwPFHqp_LilTzUDiQz0i-194" edge="1">
          <mxGeometry relative="1" as="geometry" />
        </mxCell>
        <mxCell id="HwPFHqp_LilTzUDiQz0i-191" value="research Areas Of Interest" style="rounded=0;whiteSpace=wrap;html=1;fontSize=16;" parent="1" vertex="1">
          <mxGeometry x="1395" y="1650.5" width="120" height="60" as="geometry" />
        </mxCell>
        <mxCell id="FHESCMoN95WrOvaPs308-38" style="edgeStyle=orthogonalEdgeStyle;rounded=0;orthogonalLoop=1;jettySize=auto;html=1;exitX=0.5;exitY=0;exitDx=0;exitDy=0;entryX=0.307;entryY=1.008;entryDx=0;entryDy=0;entryPerimeter=0;endArrow=none;endFill=0;targetPerimeterSpacing=0;shadow=0;strokeWidth=2;" parent="1" source="HwPFHqp_LilTzUDiQz0i-194" target="HwPFHqp_LilTzUDiQz0i-36" edge="1">
          <mxGeometry relative="1" as="geometry" />
        </mxCell>
        <mxCell id="HwPFHqp_LilTzUDiQz0i-194" value="&lt;font style=&quot;font-size: 8px;&quot;&gt;research Areas Of Interest researcher&lt;/font&gt;" style="rhombus;whiteSpace=wrap;html=1;fontSize=16;" parent="1" vertex="1">
          <mxGeometry x="1650" y="1640" width="80" height="80" as="geometry" />
        </mxCell>
        <mxCell id="HwPFHqp_LilTzUDiQz0i-195" value="" style="edgeStyle=none;curved=1;rounded=0;orthogonalLoop=1;jettySize=auto;html=1;fontSize=12;startSize=8;endSize=8;endArrow=none;endFill=0;" parent="1" source="HwPFHqp_LilTzUDiQz0i-196" target="HwPFHqp_LilTzUDiQz0i-191" edge="1">
          <mxGeometry relative="1" as="geometry" />
        </mxCell>
        <mxCell id="HwPFHqp_LilTzUDiQz0i-196" value="&lt;u&gt;id&lt;/u&gt;" style="html=1;overflow=block;blockSpacing=1;whiteSpace=wrap;rounded=1;arcSize=50;fontSize=16.7;fontColor=#3a414a;spacing=3.8;strokeColor=#3a414a;strokeOpacity=100;strokeWidth=0.8;lucidId=Hv4ZFkdMAi0.;" parent="1" vertex="1">
          <mxGeometry x="1395" y="1773.5" width="120" height="60" as="geometry" />
        </mxCell>
        <mxCell id="HwPFHqp_LilTzUDiQz0i-197" value="" style="edgeStyle=none;curved=1;rounded=0;orthogonalLoop=1;jettySize=auto;html=1;fontSize=12;startSize=8;endSize=8;endArrow=none;endFill=0;" parent="1" source="HwPFHqp_LilTzUDiQz0i-198" target="HwPFHqp_LilTzUDiQz0i-191" edge="1">
          <mxGeometry relative="1" as="geometry" />
        </mxCell>
        <mxCell id="HwPFHqp_LilTzUDiQz0i-198" value="type" style="html=1;overflow=block;blockSpacing=1;whiteSpace=wrap;rounded=1;arcSize=50;fontSize=16.7;fontColor=#3a414a;spacing=3.8;strokeColor=#3a414a;strokeOpacity=100;strokeWidth=0.8;lucidId=Hm4Z8wLVr.C2;" parent="1" vertex="1">
          <mxGeometry x="1225" y="1653.5" width="90" height="56" as="geometry" />
        </mxCell>
        <mxCell id="HwPFHqp_LilTzUDiQz0i-199" value="n" style="text;html=1;strokeColor=none;fillColor=none;align=center;verticalAlign=middle;whiteSpace=wrap;rounded=0;fontSize=16;" parent="1" vertex="1">
          <mxGeometry x="1670" y="1599.5" width="60" height="30" as="geometry" />
        </mxCell>
        <mxCell id="HwPFHqp_LilTzUDiQz0i-200" value="m" style="text;html=1;strokeColor=none;fillColor=none;align=center;verticalAlign=middle;whiteSpace=wrap;rounded=0;fontSize=16;" parent="1" vertex="1">
          <mxGeometry x="1580" y="1651.5" width="60" height="30" as="geometry" />
        </mxCell>
        <mxCell id="HwPFHqp_LilTzUDiQz0i-201" value="academic Records Of A Researcher" style="rounded=0;whiteSpace=wrap;html=1;fontSize=16;" parent="1" vertex="1">
          <mxGeometry x="1070" y="1445" width="120" height="60" as="geometry" />
        </mxCell>
        <mxCell id="HwPFHqp_LilTzUDiQz0i-202" style="edgeStyle=none;curved=1;rounded=0;orthogonalLoop=1;jettySize=auto;html=1;exitX=0;exitY=0.5;exitDx=0;exitDy=0;entryX=1;entryY=0.5;entryDx=0;entryDy=0;fontSize=12;startSize=8;endSize=8;endArrow=none;endFill=0;strokeWidth=2;" parent="1" source="HwPFHqp_LilTzUDiQz0i-203" target="HwPFHqp_LilTzUDiQz0i-201" edge="1">
          <mxGeometry relative="1" as="geometry" />
        </mxCell>
        <mxCell id="HwPFHqp_LilTzUDiQz0i-203" value="has" style="rhombus;whiteSpace=wrap;html=1;fontSize=16;" parent="1" vertex="1">
          <mxGeometry x="1330" y="1435" width="80" height="80" as="geometry" />
        </mxCell>
        <mxCell id="FHESCMoN95WrOvaPs308-49" style="edgeStyle=orthogonalEdgeStyle;rounded=0;orthogonalLoop=1;jettySize=auto;html=1;exitX=0.5;exitY=1;exitDx=0;exitDy=0;entryX=0.5;entryY=0;entryDx=0;entryDy=0;endArrow=none;endFill=0;" parent="1" source="HwPFHqp_LilTzUDiQz0i-205" target="HwPFHqp_LilTzUDiQz0i-201" edge="1">
          <mxGeometry relative="1" as="geometry" />
        </mxCell>
        <mxCell id="HwPFHqp_LilTzUDiQz0i-205" value="&lt;u&gt;id&lt;/u&gt;" style="html=1;overflow=block;blockSpacing=1;whiteSpace=wrap;rounded=1;arcSize=50;fontSize=16.7;fontColor=#3a414a;spacing=3.8;strokeColor=#3a414a;strokeOpacity=100;strokeWidth=0.8;lucidId=Hv4ZFkdMAi0.;" parent="1" vertex="1">
          <mxGeometry x="1070" y="1340" width="120" height="60" as="geometry" />
        </mxCell>
        <mxCell id="HwPFHqp_LilTzUDiQz0i-206" value="n" style="text;html=1;strokeColor=none;fillColor=none;align=center;verticalAlign=middle;whiteSpace=wrap;rounded=0;fontSize=16;" parent="1" vertex="1">
          <mxGeometry x="1270" y="1445" width="60" height="30" as="geometry" />
        </mxCell>
        <mxCell id="HwPFHqp_LilTzUDiQz0i-207" value="1" style="text;html=1;strokeColor=none;fillColor=none;align=center;verticalAlign=middle;whiteSpace=wrap;rounded=0;fontSize=16;" parent="1" vertex="1">
          <mxGeometry x="1410" y="1445" width="60" height="30" as="geometry" />
        </mxCell>
        <mxCell id="HwPFHqp_LilTzUDiQz0i-208" value="" style="edgeStyle=none;curved=1;rounded=0;orthogonalLoop=1;jettySize=auto;html=1;fontSize=12;startSize=8;endSize=8;endArrow=none;endFill=0;" parent="1" source="HwPFHqp_LilTzUDiQz0i-209" target="HwPFHqp_LilTzUDiQz0i-201" edge="1">
          <mxGeometry relative="1" as="geometry" />
        </mxCell>
        <mxCell id="HwPFHqp_LilTzUDiQz0i-209" value="school name" style="html=1;overflow=block;blockSpacing=1;whiteSpace=wrap;rounded=1;arcSize=50;fontSize=16.7;fontColor=#3a414a;spacing=3.8;strokeColor=#3a414a;strokeOpacity=100;strokeWidth=0.8;lucidId=Hv4ZFkdMAi0.;" parent="1" vertex="1">
          <mxGeometry x="890" y="1445" width="120" height="60" as="geometry" />
        </mxCell>
        <mxCell id="FHESCMoN95WrOvaPs308-47" style="edgeStyle=orthogonalEdgeStyle;rounded=0;orthogonalLoop=1;jettySize=auto;html=1;exitX=0.5;exitY=1;exitDx=0;exitDy=0;entryX=0.25;entryY=0;entryDx=0;entryDy=0;endArrow=none;endFill=0;" parent="1" source="HwPFHqp_LilTzUDiQz0i-211" target="HwPFHqp_LilTzUDiQz0i-201" edge="1">
          <mxGeometry relative="1" as="geometry" />
        </mxCell>
        <mxCell id="HwPFHqp_LilTzUDiQz0i-211" value="average of grade" style="html=1;overflow=block;blockSpacing=1;whiteSpace=wrap;rounded=1;arcSize=50;fontSize=16.7;fontColor=#3a414a;spacing=3.8;strokeColor=#3a414a;strokeOpacity=100;strokeWidth=0.8;lucidId=Hv4ZFkdMAi0.;" parent="1" vertex="1">
          <mxGeometry x="890" y="1340" width="120" height="60" as="geometry" />
        </mxCell>
        <mxCell id="FHESCMoN95WrOvaPs308-50" value="" style="edgeStyle=orthogonalEdgeStyle;rounded=0;orthogonalLoop=1;jettySize=auto;html=1;endArrow=none;endFill=0;" parent="1" source="HwPFHqp_LilTzUDiQz0i-213" target="HwPFHqp_LilTzUDiQz0i-201" edge="1">
          <mxGeometry relative="1" as="geometry" />
        </mxCell>
        <mxCell id="HwPFHqp_LilTzUDiQz0i-213" value="major" style="html=1;overflow=block;blockSpacing=1;whiteSpace=wrap;rounded=1;arcSize=50;fontSize=16.7;fontColor=#3a414a;spacing=3.8;strokeColor=#3a414a;strokeOpacity=100;strokeWidth=0.8;lucidId=Hv4ZFkdMAi0.;" parent="1" vertex="1">
          <mxGeometry x="1070" y="1539.5" width="120" height="60" as="geometry" />
        </mxCell>
        <mxCell id="FHESCMoN95WrOvaPs308-52" style="edgeStyle=orthogonalEdgeStyle;rounded=0;orthogonalLoop=1;jettySize=auto;html=1;exitX=0.5;exitY=0;exitDx=0;exitDy=0;entryX=0.25;entryY=1;entryDx=0;entryDy=0;endArrow=none;endFill=0;" parent="1" source="HwPFHqp_LilTzUDiQz0i-215" target="HwPFHqp_LilTzUDiQz0i-201" edge="1">
          <mxGeometry relative="1" as="geometry">
            <Array as="points">
              <mxPoint x="950" y="1525" />
              <mxPoint x="1100" y="1525" />
            </Array>
          </mxGeometry>
        </mxCell>
        <mxCell id="HwPFHqp_LilTzUDiQz0i-215" value="university name" style="html=1;overflow=block;blockSpacing=1;whiteSpace=wrap;rounded=1;arcSize=50;fontSize=16.7;fontColor=#3a414a;spacing=3.8;strokeColor=#3a414a;strokeOpacity=100;strokeWidth=0.8;lucidId=Hv4ZFkdMAi0.;" parent="1" vertex="1">
          <mxGeometry x="890" y="1539.5" width="120" height="60" as="geometry" />
        </mxCell>
        <mxCell id="FHESCMoN95WrOvaPs308-29" style="edgeStyle=orthogonalEdgeStyle;rounded=0;orthogonalLoop=1;jettySize=auto;html=1;exitX=0;exitY=0.5;exitDx=0;exitDy=0;entryX=1;entryY=0.5;entryDx=0;entryDy=0;endArrow=none;endFill=0;strokeWidth=2;" parent="1" source="HwPFHqp_LilTzUDiQz0i-217" target="HwPFHqp_LilTzUDiQz0i-218" edge="1">
          <mxGeometry relative="1" as="geometry">
            <Array as="points">
              <mxPoint x="1890" y="1400" />
              <mxPoint x="1890" y="1235" />
            </Array>
          </mxGeometry>
        </mxCell>
        <mxCell id="HwPFHqp_LilTzUDiQz0i-217" value="has" style="rhombus;whiteSpace=wrap;html=1;fontSize=16;" parent="1" vertex="1">
          <mxGeometry x="2000" y="1360" width="80" height="80" as="geometry" />
        </mxCell>
        <mxCell id="HwPFHqp_LilTzUDiQz0i-218" value="puplication" style="rounded=0;whiteSpace=wrap;html=1;fontSize=16;" parent="1" vertex="1">
          <mxGeometry x="1620" y="1205" width="120" height="60" as="geometry" />
        </mxCell>
        <mxCell id="HwPFHqp_LilTzUDiQz0i-219" style="edgeStyle=none;curved=1;rounded=0;orthogonalLoop=1;jettySize=auto;html=1;exitX=0.5;exitY=1;exitDx=0;exitDy=0;entryX=0.5;entryY=0;entryDx=0;entryDy=0;fontSize=12;startSize=8;endSize=8;endArrow=none;endFill=0;" parent="1" source="HwPFHqp_LilTzUDiQz0i-220" target="HwPFHqp_LilTzUDiQz0i-218" edge="1">
          <mxGeometry relative="1" as="geometry" />
        </mxCell>
        <mxCell id="HwPFHqp_LilTzUDiQz0i-220" value="&lt;u&gt;id&lt;/u&gt;" style="html=1;overflow=block;blockSpacing=1;whiteSpace=wrap;rounded=1;arcSize=50;fontSize=16.7;fontColor=#3a414a;spacing=3.8;strokeColor=#3a414a;strokeOpacity=100;strokeWidth=0.8;lucidId=gp4ZOOJwNQIq;" parent="1" vertex="1">
          <mxGeometry x="1620" y="1110" width="120" height="60" as="geometry" />
        </mxCell>
        <mxCell id="HwPFHqp_LilTzUDiQz0i-221" value="" style="edgeStyle=none;curved=1;rounded=0;orthogonalLoop=1;jettySize=auto;html=1;fontSize=12;startSize=8;endSize=8;endArrow=none;endFill=0;" parent="1" source="HwPFHqp_LilTzUDiQz0i-222" target="HwPFHqp_LilTzUDiQz0i-218" edge="1">
          <mxGeometry relative="1" as="geometry" />
        </mxCell>
        <mxCell id="HwPFHqp_LilTzUDiQz0i-222" value="name" style="html=1;overflow=block;blockSpacing=1;whiteSpace=wrap;rounded=1;arcSize=50;fontSize=16.7;fontColor=#3a414a;spacing=3.8;strokeColor=#3a414a;strokeOpacity=100;strokeWidth=0.8;lucidId=gp4ZOOJwNQIq;" parent="1" vertex="1">
          <mxGeometry x="1450" y="1205" width="120" height="60" as="geometry" />
        </mxCell>
        <mxCell id="LdOhWxeoxdTWi-fPVQRp-17" style="edgeStyle=orthogonalEdgeStyle;rounded=0;orthogonalLoop=1;jettySize=auto;html=1;entryX=0;entryY=0.25;entryDx=0;entryDy=0;fontSize=12;startSize=8;endSize=8;endArrow=none;endFill=0;" parent="1" source="HwPFHqp_LilTzUDiQz0i-223" target="HwPFHqp_LilTzUDiQz0i-218" edge="1">
          <mxGeometry relative="1" as="geometry" />
        </mxCell>
        <mxCell id="HwPFHqp_LilTzUDiQz0i-223" value="address" style="html=1;overflow=block;blockSpacing=1;whiteSpace=wrap;rounded=1;arcSize=50;fontSize=16.7;fontColor=#3a414a;spacing=3.8;strokeColor=#3a414a;strokeOpacity=100;strokeWidth=0.8;lucidId=gp4ZOOJwNQIq;" parent="1" vertex="1">
          <mxGeometry x="1450" y="1115" width="120" height="60" as="geometry" />
        </mxCell>
        <mxCell id="HwPFHqp_LilTzUDiQz0i-224" value="n" style="text;html=1;strokeColor=none;fillColor=none;align=center;verticalAlign=middle;whiteSpace=wrap;rounded=0;fontSize=16;" parent="1" vertex="1">
          <mxGeometry x="2080" y="1366" width="60" height="30" as="geometry" />
        </mxCell>
        <mxCell id="HwPFHqp_LilTzUDiQz0i-225" value="1" style="text;html=1;strokeColor=none;fillColor=none;align=center;verticalAlign=middle;whiteSpace=wrap;rounded=0;fontSize=16;" parent="1" vertex="1">
          <mxGeometry x="1940" y="1366" width="60" height="30" as="geometry" />
        </mxCell>
        <mxCell id="HwPFHqp_LilTzUDiQz0i-226" value="attend" style="rhombus;whiteSpace=wrap;html=1;fontSize=16;" parent="1" vertex="1">
          <mxGeometry x="2693" y="1661.5" width="80" height="80" as="geometry" />
        </mxCell>
        <mxCell id="HwPFHqp_LilTzUDiQz0i-236" style="edgeStyle=orthogonalEdgeStyle;rounded=0;orthogonalLoop=1;jettySize=auto;html=1;exitX=1;exitY=0.5;exitDx=0;exitDy=0;entryX=0.175;entryY=0.012;entryDx=0;entryDy=0;endArrow=none;endFill=0;entryPerimeter=0;" parent="1" source="HwPFHqp_LilTzUDiQz0i-235" target="HwPFHqp_LilTzUDiQz0i-73" edge="1">
          <mxGeometry relative="1" as="geometry">
            <Array as="points">
              <mxPoint x="2410" y="1750" />
              <mxPoint x="2410" y="1540" />
            </Array>
          </mxGeometry>
        </mxCell>
        <mxCell id="HwPFHqp_LilTzUDiQz0i-235" value="&lt;div class=&quot;lRu31&quot;&gt;end time&lt;br&gt;&lt;/div&gt;" style="html=1;overflow=block;blockSpacing=1;whiteSpace=wrap;rounded=1;arcSize=50;fontSize=16.7;fontColor=#3a414a;spacing=3.8;strokeColor=#3a414a;strokeOpacity=100;strokeWidth=0.8;lucidId=jr4ZjSVFmvB8;" parent="1" vertex="1">
          <mxGeometry x="2234" y="1720" width="120" height="60" as="geometry" />
        </mxCell>
        <mxCell id="FHESCMoN95WrOvaPs308-16" value="m" style="text;html=1;strokeColor=none;fillColor=none;align=center;verticalAlign=middle;whiteSpace=wrap;rounded=0;" parent="1" vertex="1">
          <mxGeometry x="2713" y="1631.5" width="60" height="30" as="geometry" />
        </mxCell>
        <mxCell id="mki-WD1lNealj5Qb1lwi-2" style="edgeStyle=none;curved=1;rounded=0;orthogonalLoop=1;jettySize=auto;html=1;entryX=1;entryY=0;entryDx=0;entryDy=0;fontSize=12;startSize=8;endSize=8;exitX=0.122;exitY=0.929;exitDx=0;exitDy=0;exitPerimeter=0;endArrow=none;endFill=0;" parent="1" source="mki-WD1lNealj5Qb1lwi-1" target="HwPFHqp_LilTzUDiQz0i-141" edge="1">
          <mxGeometry relative="1" as="geometry" />
        </mxCell>
        <mxCell id="mki-WD1lNealj5Qb1lwi-1" value="financial Budget" style="html=1;overflow=block;blockSpacing=1;whiteSpace=wrap;rounded=1;arcSize=50;fontSize=16.7;fontColor=#3a414a;spacing=3.8;strokeColor=#3a414a;strokeOpacity=100;strokeWidth=0.8;lucidId=Hm4Z8wLVr.C2;" parent="1" vertex="1">
          <mxGeometry x="3040" y="1238" width="90" height="56" as="geometry" />
        </mxCell>
        <mxCell id="LdOhWxeoxdTWi-fPVQRp-7" style="edgeStyle=orthogonalEdgeStyle;rounded=0;orthogonalLoop=1;jettySize=auto;html=1;entryX=1;entryY=0.5;entryDx=0;entryDy=0;fontSize=12;startSize=8;endSize=8;endArrow=none;endFill=0;" parent="1" source="LdOhWxeoxdTWi-fPVQRp-4" target="LdOhWxeoxdTWi-fPVQRp-6" edge="1">
          <mxGeometry relative="1" as="geometry" />
        </mxCell>
        <mxCell id="LdOhWxeoxdTWi-fPVQRp-4" value="&lt;font style=&quot;font-size: 12px;&quot;&gt;researcher institute&lt;/font&gt;" style="rhombus;whiteSpace=wrap;html=1;fontSize=16;" parent="1" vertex="1">
          <mxGeometry x="1697" y="2110" width="80" height="80" as="geometry" />
        </mxCell>
        <mxCell id="LdOhWxeoxdTWi-fPVQRp-6" value="&lt;div align=&quot;center&quot;&gt;&lt;font size=&quot;3&quot;&gt;current researcher&lt;/font&gt;&lt;br&gt;&lt;/div&gt;" style="html=1;overflow=block;blockSpacing=1;whiteSpace=wrap;rounded=1;arcSize=50;fontSize=16.7;fontColor=#3a414a;spacing=3.8;strokeColor=#3a414a;strokeOpacity=100;strokeWidth=0.8;lucidId=UP4Z74KVq56b;" parent="1" vertex="1">
          <mxGeometry x="1530" y="2125" width="90" height="50" as="geometry" />
        </mxCell>
        <mxCell id="LdOhWxeoxdTWi-fPVQRp-8" value="staff" style="rounded=0;whiteSpace=wrap;html=1;fontSize=16;" parent="1" vertex="1">
          <mxGeometry x="3500" y="2117" width="120" height="60" as="geometry" />
        </mxCell>
        <mxCell id="LdOhWxeoxdTWi-fPVQRp-9" value="" style="endArrow=none;html=1;rounded=0;fontSize=12;startSize=8;endSize=8;exitX=1;exitY=0.5;exitDx=0;exitDy=0;edgeStyle=orthogonalEdgeStyle;endFill=0;strokeWidth=2;" parent="1" source="HwPFHqp_LilTzUDiQz0i-44" target="LdOhWxeoxdTWi-fPVQRp-8" edge="1">
          <mxGeometry width="50" height="50" relative="1" as="geometry">
            <mxPoint x="3470" y="2230" as="sourcePoint" />
            <mxPoint x="3520" y="2180" as="targetPoint" />
            <Array as="points">
              <mxPoint x="3510" y="2390" />
            </Array>
          </mxGeometry>
        </mxCell>
        <mxCell id="LdOhWxeoxdTWi-fPVQRp-12" value="has" style="rhombus;whiteSpace=wrap;html=1;fontSize=16;" parent="1" vertex="1">
          <mxGeometry x="2980" y="2342.5" width="90" height="95" as="geometry" />
        </mxCell>
        <mxCell id="LdOhWxeoxdTWi-fPVQRp-18" value="1" style="text;html=1;align=center;verticalAlign=middle;resizable=0;points=[];autosize=1;strokeColor=none;fillColor=none;fontSize=16;" parent="1" vertex="1">
          <mxGeometry x="3010" y="930" width="30" height="30" as="geometry" />
        </mxCell>
        <mxCell id="LdOhWxeoxdTWi-fPVQRp-19" value="n" style="text;html=1;align=center;verticalAlign=middle;resizable=0;points=[];autosize=1;strokeColor=none;fillColor=none;fontSize=16;" parent="1" vertex="1">
          <mxGeometry x="3010" y="1040" width="30" height="30" as="geometry" />
        </mxCell>
        <mxCell id="LdOhWxeoxdTWi-fPVQRp-20" value="o" style="text;html=1;align=center;verticalAlign=middle;resizable=0;points=[];autosize=1;strokeColor=none;fillColor=none;fontSize=16;" parent="1" vertex="1">
          <mxGeometry x="3060" y="1330" width="30" height="30" as="geometry" />
        </mxCell>
        <mxCell id="LdOhWxeoxdTWi-fPVQRp-21" value="m" style="text;html=1;align=center;verticalAlign=middle;resizable=0;points=[];autosize=1;strokeColor=none;fillColor=none;fontSize=16;" parent="1" vertex="1">
          <mxGeometry x="3040" y="1437" width="40" height="30" as="geometry" />
        </mxCell>
        <mxCell id="LdOhWxeoxdTWi-fPVQRp-22" value="n" style="text;html=1;align=center;verticalAlign=middle;resizable=0;points=[];autosize=1;strokeColor=none;fillColor=none;fontSize=16;" parent="1" vertex="1">
          <mxGeometry x="2935" y="1438" width="30" height="30" as="geometry" />
        </mxCell>
        <mxCell id="LdOhWxeoxdTWi-fPVQRp-23" value="1" style="text;html=1;align=center;verticalAlign=middle;resizable=0;points=[];autosize=1;strokeColor=none;fillColor=none;fontSize=16;" parent="1" vertex="1">
          <mxGeometry x="3187" y="1829" width="30" height="30" as="geometry" />
        </mxCell>
        <mxCell id="LdOhWxeoxdTWi-fPVQRp-24" value="n" style="text;html=1;align=center;verticalAlign=middle;resizable=0;points=[];autosize=1;strokeColor=none;fillColor=none;fontSize=16;" parent="1" vertex="1">
          <mxGeometry x="2773" y="1666.5" width="30" height="30" as="geometry" />
        </mxCell>
        <mxCell id="LdOhWxeoxdTWi-fPVQRp-28" value="n" style="text;html=1;align=center;verticalAlign=middle;resizable=0;points=[];autosize=1;strokeColor=none;fillColor=none;fontSize=16;" parent="1" vertex="1">
          <mxGeometry x="1740" y="2080" width="30" height="30" as="geometry" />
        </mxCell>
        <mxCell id="LdOhWxeoxdTWi-fPVQRp-29" value="m" style="text;html=1;align=center;verticalAlign=middle;resizable=0;points=[];autosize=1;strokeColor=none;fillColor=none;fontSize=16;" parent="1" vertex="1">
          <mxGeometry x="1777" y="2117" width="40" height="30" as="geometry" />
        </mxCell>
        <mxCell id="LdOhWxeoxdTWi-fPVQRp-30" value="1" style="text;html=1;align=center;verticalAlign=middle;resizable=0;points=[];autosize=1;strokeColor=none;fillColor=none;fontSize=16;" parent="1" vertex="1">
          <mxGeometry x="3060" y="2144" width="30" height="30" as="geometry" />
        </mxCell>
        <mxCell id="LdOhWxeoxdTWi-fPVQRp-31" value="n" style="text;html=1;align=center;verticalAlign=middle;resizable=0;points=[];autosize=1;strokeColor=none;fillColor=none;fontSize=16;" parent="1" vertex="1">
          <mxGeometry x="2955" y="2143" width="30" height="30" as="geometry" />
        </mxCell>
        <mxCell id="LdOhWxeoxdTWi-fPVQRp-32" value="1" style="text;html=1;align=center;verticalAlign=middle;resizable=0;points=[];autosize=1;strokeColor=none;fillColor=none;fontSize=16;" parent="1" vertex="1">
          <mxGeometry x="3915" y="2117" width="30" height="30" as="geometry" />
        </mxCell>
        <mxCell id="LdOhWxeoxdTWi-fPVQRp-33" value="n" style="text;html=1;align=center;verticalAlign=middle;resizable=0;points=[];autosize=1;strokeColor=none;fillColor=none;fontSize=16;" parent="1" vertex="1">
          <mxGeometry x="3800" y="2113" width="30" height="30" as="geometry" />
        </mxCell>
      </root>
    </mxGraphModel>
  </diagram>
</mxfile>
